<svg preserveAspectRatio="none" width="100%" height="100%" overflow="visible" style="display: block;" viewBox="0 0 24.0003 21" fill="none" xmlns="http://www.w3.org/2000/svg">
<path id="2" d="M18.2109 0.500008C18.8716 0.500015 19.5813 0.56522 20.25 0.875008L20.7129 1.10157C21.7841 1.66077 22.7756 2.45793 23.21 3.81055L23.3125 4.16016C23.7661 5.89816 23.348 7.4959 22.5957 9.06055C22.1803 9.92456 21.4614 10.9314 20.5 11.7285C19.5364 12.5274 18.3015 13.1365 16.8662 13.1416H16.8643C16.1323 13.1416 15.4 13.1484 14.666 13.1553C13.9327 13.1621 13.197 13.169 12.4639 13.169H8.92578C8.63758 13.169 8.34536 13.1946 8.05762 13.2373C8.01934 13.2436 8.00759 13.2536 8.00488 13.2559C8.00091 13.2592 7.9825 13.276 7.96289 13.3311V13.332C7.71624 14.0214 7.50123 14.7047 7.35644 15.4004C7.48225 15.4103 7.6047 15.417 7.72851 15.417C9.40395 15.4124 11.0795 15.4047 12.7559 15.3955C14.4323 15.3864 16.1098 15.3767 17.7871 15.3721H17.7881C18.649 15.3721 19.5137 15.3998 20.3516 15.418H20.3506C20.4179 15.4183 20.5055 15.4231 20.5947 15.4453C20.6936 15.47 20.8319 15.5261 20.9395 15.6602C21.0461 15.7933 21.0714 15.9391 21.0752 16.0381C21.077 16.0856 21.0742 16.1319 21.0693 16.1748L21.0508 16.291C20.8219 17.4262 20.5831 18.5703 20.3457 19.7041L20.3467 19.7051C20.3114 19.8811 20.2337 20.0741 20.0732 20.2266C19.9098 20.3818 19.7065 20.45 19.5029 20.4609L19.5039 20.4619C19.4536 20.4654 19.405 20.4721 19.3252 20.4815C19.2547 20.4897 19.1618 20.5 19.0645 20.5H3.89258C3.13637 20.5 2.36704 20.4722 1.62695 20.4541V20.4531C1.56735 20.4531 1.48036 20.4534 1.38086 20.4404L1.36523 20.4385C1.24624 20.4191 1.11512 20.3929 0.997069 20.3467C0.872878 20.2981 0.723303 20.2118 0.618163 20.0479C0.515197 19.8872 0.497205 19.7183 0.499999 19.5918C0.502743 19.4686 0.526554 19.3389 0.551757 19.2197L0.764647 18.1484C0.833372 17.7899 0.901067 17.4294 0.972655 17.0664L1.24512 15.6533C1.33843 15.1787 1.4374 14.7023 1.54883 14.2295L1.62402 13.9287C2.02345 12.4325 2.75906 11.0755 3.99512 10.0508C5.53869 8.64354 7.22745 8.06069 8.73242 7.99317L9.03223 7.98634C10.9732 7.89531 12.9184 7.94106 14.8389 8.00489H14.8398C15.3798 8.023 15.9201 8.03223 16.4512 8.03223C16.597 8.03217 16.6994 8.00096 16.7734 7.95704C16.8464 7.91371 16.9196 7.8419 16.9834 7.71778L16.9844 7.71485C17.2646 7.17939 17.3598 6.61464 17.2812 6.00489L17.2373 5.74024C17.2307 5.70787 17.2222 5.68918 17.2178 5.6797C17.2093 5.67747 17.1951 5.67551 17.1738 5.67384H4.88183L4.7793 5.8418L4.36523 5.62598L4.34766 5.6172L4.47266 5.10645L4.16992 4.92188C4.35762 4.61515 4.52215 4.36599 4.6748 4.12794C4.97919 3.64624 5.28618 3.16735 5.5918 2.68946C5.89658 2.21288 6.2003 1.7371 6.50195 1.25977C6.63246 1.04734 6.79962 0.856341 7.02441 0.721688C7.25235 0.585149 7.50551 0.527352 7.77344 0.527352C10.0428 0.527351 12.3184 0.509172 14.5918 0.500008H18.2109Z" fill="var(--fill-0, #545454)" stroke="var(--stroke-0, white)"/>
</svg>
