<svg preserveAspectRatio="none" width="100%" height="100%" overflow="visible" style="display: block;" viewBox="0 0 92 92" fill="none" xmlns="http://www.w3.org/2000/svg">
<g id="Frame" filter="url(#filter0_d_0_7)">
<path d="M5 24C5 13.5066 13.5066 5 24 5H80C82.7614 5 85 7.23858 85 10V66C85 76.4934 76.4934 85 66 85H10C7.23858 85 5 82.7614 5 80V24Z" fill="url(#paint0_linear_0_7)"/>
<path d="M80 3C83.866 3 87 6.13401 87 10V66C87 77.598 77.598 87 66 87H10C6.13401 87 3 83.866 3 80V24L3.00684 23.458C3.29431 12.1105 12.5832 3 24 3H80Z" stroke="url(#paint1_linear_0_7)" stroke-width="4" stroke-linejoin="round"/>
</g>
<defs>
<filter id="filter0_d_0_7" x="0" y="0" width="92" height="92" filterUnits="userSpaceOnUse" color-interpolation-filters="sRGB">
<feFlood flood-opacity="0" result="BackgroundImageFix"/>
<feColorMatrix in="SourceAlpha" type="matrix" values="0 0 0 0 0 0 0 0 0 0 0 0 0 0 0 0 0 0 127 0" result="hardAlpha"/>
<feOffset dx="1" dy="1"/>
<feGaussianBlur stdDeviation="1"/>
<feComposite in2="hardAlpha" operator="out"/>
<feColorMatrix type="matrix" values="0 0 0 0 0 0 0 0 0 0 0 0 0 0 0 0 0 0 1 0"/>
<feBlend mode="normal" in2="BackgroundImageFix" result="effect1_dropShadow_0_7"/>
<feBlend mode="normal" in="SourceGraphic" in2="effect1_dropShadow_0_7" result="shape"/>
</filter>
<linearGradient id="paint0_linear_0_7" x1="5" y1="5" x2="85" y2="85" gradientUnits="userSpaceOnUse">
<stop stop-color="#D2D6D9"/>
<stop offset="0.494792" stop-color="#FEFEFE"/>
<stop offset="1" stop-color="#D9D9D9"/>
</linearGradient>
<linearGradient id="paint1_linear_0_7" x1="5" y1="5" x2="85" y2="85" gradientUnits="userSpaceOnUse">
<stop stop-color="#7D7C84"/>
<stop offset="0.419556" stop-color="#CED0CF"/>
<stop offset="1" stop-color="#808485"/>
</linearGradient>
</defs>
</svg>
