<svg preserveAspectRatio="none" width="100%" height="100%" overflow="visible" style="display: block;" viewBox="0 0 143.5 79" fill="none" xmlns="http://www.w3.org/2000/svg">
<g id="Union" filter="url(#filter0_di_0_16)">
<path fill-rule="evenodd" clip-rule="evenodd" d="M91 72.9996V73H4V68H73.5778C90.2686 60.1891 123 40.4662 123 23C123 12.6879 115.5 7.5 107 2H124C132 4.5 139.5 8.99636 139.5 23.3091C139.5 40.8663 118.313 63.6824 93.8955 72.5119C92.9741 72.8451 91.993 73.0002 91.0132 72.9996C91.0088 72.9996 91.0044 72.9996 91 72.9996ZM127 23.8061C127 15.8545 123.667 10.2222 122 8.4C125 9.39394 132 13.3697 132 24.303C132 40.2061 106.833 55.7778 94 62.5697C95.9334 60.9348 98.1867 59.1658 100.591 57.2782C112.073 48.2639 127 36.5446 127 23.8061Z" fill="url(#paint0_linear_0_16)"/>
</g>
<defs>
<filter id="filter0_di_0_16" x="0" y="0" width="143.5" height="79" filterUnits="userSpaceOnUse" color-interpolation-filters="sRGB">
<feFlood flood-opacity="0" result="BackgroundImageFix"/>
<feColorMatrix in="SourceAlpha" type="matrix" values="0 0 0 0 0 0 0 0 0 0 0 0 0 0 0 0 0 0 127 0" result="hardAlpha"/>
<feOffset dy="2"/>
<feGaussianBlur stdDeviation="2"/>
<feComposite in2="hardAlpha" operator="out"/>
<feColorMatrix type="matrix" values="0 0 0 0 0 0 0 0 0 0 0 0 0 0 0 0 0 0 0.25 0"/>
<feBlend mode="normal" in2="BackgroundImageFix" result="effect1_dropShadow_0_16"/>
<feBlend mode="normal" in="SourceGraphic" in2="effect1_dropShadow_0_16" result="shape"/>
<feColorMatrix in="SourceAlpha" type="matrix" values="0 0 0 0 0 0 0 0 0 0 0 0 0 0 0 0 0 0 127 0" result="hardAlpha"/>
<feOffset dx="1" dy="1"/>
<feGaussianBlur stdDeviation="1.5"/>
<feComposite in2="hardAlpha" operator="arithmetic" k2="-1" k3="1"/>
<feColorMatrix type="matrix" values="0 0 0 0 1 0 0 0 0 1 0 0 0 0 1 0 0 0 1 0"/>
<feBlend mode="normal" in2="shape" result="effect2_innerShadow_0_16"/>
</filter>
<linearGradient id="paint0_linear_0_16" x1="76.75" y1="2" x2="76.75" y2="73" gradientUnits="userSpaceOnUse">
<stop offset="0.0325116" stop-color="#EFEFEF"/>
<stop offset="0.287815" stop-color="#A5A7A6"/>
<stop offset="0.532122" stop-color="#F7F9F6"/>
<stop offset="0.654813" stop-color="#6C6B70"/>
<stop offset="0.933559" stop-color="#B5B6B8"/>
</linearGradient>
</defs>
</svg>
