<svg preserveAspectRatio="none" width="100%" height="100%" overflow="visible" style="display: block;" viewBox="0 0 71.978 13.2771" fill="none" xmlns="http://www.w3.org/2000/svg">
<g id="Stage">
<mask id="path-1-outside-1_0_31" maskUnits="userSpaceOnUse" x="-0.999768" y="-0.999899" width="73" height="15" fill="black">
<rect fill="white" x="-0.999768" y="-0.999899" width="73" height="15"/>
<path fill-rule="evenodd" clip-rule="evenodd" d="M25.9055 12.2629C26.0113 12.0867 26.1121 11.9552 26.1974 11.8438C26.2331 11.7973 26.266 11.7542 26.2955 11.7129L26.2956 11.7128C27.1056 10.6028 27.9156 9.49288 28.7355 8.39292C29.3653 7.53494 29.9986 6.67875 30.6317 5.82283L30.6326 5.82172L30.6327 5.82153C31.4972 4.65276 32.3614 3.48451 33.2155 2.31292C33.8855 1.40292 34.7355 0.91292 35.8855 1.01292C36.0355 1.02792 36.1855 1.03292 36.3355 1.03792C36.4855 1.04292 36.6355 1.04792 36.7855 1.06292C37.4555 1.13292 37.8955 1.50292 38.1155 2.13292C38.4155 2.99292 38.6955 3.86292 38.9755 4.73292C39.3339 5.84287 39.6923 6.9553 40.0507 8.06774L40.0555 8.08284C40.4155 9.20037 40.7755 10.3179 41.1355 11.4329L41.1659 11.5278C41.3462 12.088 41.4179 12.3108 40.5455 12.2729C39.9255 12.2429 39.2955 12.2529 38.6755 12.2729C38.3855 12.2829 38.2355 12.1729 38.1555 11.9029C38.1031 11.7351 38.0482 11.5684 37.9934 11.4021L37.9934 11.402C37.8915 11.0929 37.7901 10.785 37.7055 10.4729C37.6455 10.2629 37.5355 10.1929 37.3355 10.1929C35.1955 10.1929 33.0455 10.1929 30.9055 10.2029C30.7555 10.2029 30.5555 10.3229 30.4555 10.4429C30.201 10.7611 29.9615 11.0993 29.7228 11.4362C29.6239 11.5758 29.5251 11.7152 29.4255 11.8529C29.2255 12.1329 28.9655 12.2629 28.6055 12.2629C28.0695 12.2497 27.481 12.254 26.8747 12.2584H26.8746L26.8744 12.2584C26.5645 12.2606 26.25 12.2629 25.9355 12.2629H25.9055ZM35.4155 3.58292C34.748 4.43193 34.1354 5.29808 33.5234 6.16331C33.0902 6.77578 32.6573 7.38779 32.2055 7.99292H36.9155C36.4855 6.62292 35.5255 3.74292 35.4155 3.58292ZM69.9355 5.49291H60.9855L60.9755 5.46291C61.1055 4.29291 61.6255 3.69291 62.6355 3.67291C63.6155 3.65291 64.5955 3.65291 65.5755 3.65291H69.8255C70.3155 3.64291 70.5055 3.50291 70.6055 3.05291C70.6256 2.96244 70.6461 2.87157 70.6667 2.78038L70.668 2.77473L70.6681 2.77454C70.7494 2.41401 70.832 2.04846 70.8955 1.68291C70.9242 1.53221 70.9272 1.37121 70.9303 1.20361V1.20317C70.9315 1.13736 70.9327 1.07053 70.9355 1.00291H70.4055H63.4655C63.1155 1.00291 62.7555 1.02291 62.4055 1.06291C60.3055 1.29291 58.9255 2.39291 58.3955 4.46291C58.1455 5.44291 57.9255 6.44291 57.7355 7.44291C57.5955 8.17291 57.4555 8.92291 57.4355 9.66291C57.3955 10.8329 57.9955 11.6329 59.1155 11.9629C59.6555 12.1229 60.2255 12.2329 60.7755 12.2329C62.6128 12.2479 64.4556 12.246 66.2999 12.2442H66.3001H66.3002L66.3026 12.2442C66.9168 12.2435 67.5312 12.2429 68.1455 12.2429C68.4655 12.2429 68.6855 12.1129 68.7555 11.8129C68.868 11.3555 68.9636 10.8981 69.0592 10.4407L69.0593 10.4405C69.0912 10.288 69.123 10.1354 69.1555 9.98291C69.1955 9.81291 69.1355 9.70291 68.9455 9.68291C68.8878 9.67766 68.8308 9.67173 68.7741 9.66582C68.6147 9.64923 68.4578 9.63291 68.2955 9.63291C66.0755 9.62291 63.8555 9.62291 61.6355 9.62291C61.4255 9.62291 61.2155 9.60291 61.0155 9.56291C60.5755 9.47291 60.3655 9.24291 60.3655 8.78291C60.3918 8.50235 60.4412 8.22947 60.5001 7.90363L60.5002 7.90359L60.5255 7.76291H60.7855H64.4055H68.7755C69.4055 7.76291 69.5155 7.68291 69.6655 7.08291C69.6796 7.02688 69.6941 6.97084 69.7087 6.91468L69.7089 6.91372C69.7568 6.72965 69.8049 6.54421 69.8355 6.35291C69.8586 6.19764 69.8749 6.04236 69.8923 5.87758L69.8923 5.8774L69.8924 5.87686L69.8925 5.8762C69.9053 5.75487 69.9186 5.62837 69.9355 5.49291ZM14.9555 1.0529C14.9158 1.27341 14.8781 1.49003 14.8406 1.70533L14.8405 1.70549L14.8405 1.70575L14.8405 1.70587C14.793 1.97858 14.7458 2.24918 14.6955 2.5229C14.6955 2.54956 14.6866 2.57623 14.6778 2.6029C14.6733 2.61623 14.6689 2.62956 14.6655 2.6429C14.4555 3.6429 14.4255 3.6729 13.3955 3.6729C11.0555 3.6729 8.70554 3.6729 6.36553 3.6629C5.74554 3.6629 5.53553 3.8329 5.40553 4.4529C5.21553 5.3829 5.30553 5.4829 6.25553 5.4829C6.82591 5.4829 7.39628 5.48067 7.96628 5.47845H7.96629H7.9663H7.96631C9.10519 5.474 10.2426 5.46957 11.3755 5.4829C11.7655 5.4829 12.1655 5.5229 12.5455 5.6129C13.5355 5.8429 14.0855 6.6429 13.9455 7.7329C13.8455 8.5229 13.6855 9.3229 13.4355 10.0729C12.9755 11.4629 11.8155 12.2529 10.2455 12.2629C8.29257 12.2762 6.34405 12.2718 4.39405 12.2673H4.39391H4.39376H4.39362C3.41821 12.2651 2.44243 12.2629 1.46554 12.2629C1.04554 12.2629 0.945535 12.1329 1.02554 11.7329C1.12554 11.2429 1.22554 10.7529 1.33554 10.2729C1.45554 9.7629 1.58554 9.6629 2.11554 9.6529H5.08553H9.80553C10.6055 9.6529 10.7755 9.5129 10.9255 8.7129C10.9305 8.67791 10.938 8.64292 10.9455 8.60793L10.9455 8.6079C10.953 8.5729 10.9605 8.5379 10.9655 8.5029C11.0355 7.9029 10.9255 7.7829 10.3255 7.7829H4.66554C4.39554 7.7829 4.12553 7.7529 3.86553 7.6929C2.83553 7.4529 2.23554 6.6429 2.36554 5.5729C2.45554 4.8229 2.60554 4.0729 2.82554 3.3429C3.24554 1.9429 4.42553 1.0529 5.92553 1.0329C7.99117 1.00489 10.0568 1.0112 12.119 1.0175C13.0019 1.0202 13.8842 1.0229 14.7655 1.0229C14.7958 1.0229 14.826 1.02861 14.8865 1.04004L14.8865 1.04004L14.8865 1.04005C14.9061 1.04374 14.9287 1.04802 14.9555 1.0529ZM53.0155 7.76292H52.5955H48.7855C48.2855 7.76292 48.1855 7.64292 48.2755 7.16292C48.3555 6.76292 48.4355 6.36292 48.5355 5.97292C48.6055 5.68292 48.7855 5.51292 49.1155 5.51292H55.5555C56.1055 5.51292 56.1555 5.59292 56.0455 6.12292C55.7555 7.46292 55.4655 8.80292 55.1655 10.1429C55.1055 10.4129 54.9955 10.6829 54.8755 10.9329C54.4555 11.8229 53.7255 12.2629 52.7555 12.2629C50.4555 12.2729 48.1555 12.2829 45.8455 12.2629C45.3255 12.2629 44.8055 12.1729 44.3055 12.0529C42.9055 11.7029 42.2455 10.7529 42.4455 9.27292C42.6755 7.63292 43.0455 6.00292 43.4455 4.39292C43.7655 3.12292 44.4755 2.09292 45.7255 1.54292C46.4855 1.21292 47.2955 1.03292 48.1255 1.03292C49.9589 1.01958 51.7922 1.02403 53.6255 1.02847C54.5422 1.03069 55.4589 1.03292 56.3755 1.03292H56.4655C57.0255 1.05292 57.0855 1.12292 56.9755 1.66292C56.9255 1.91794 56.8705 2.17297 56.8155 2.42799C56.7605 2.68297 56.7055 2.93794 56.6555 3.19292C56.5855 3.51292 56.4155 3.71292 56.0755 3.74292C56.0028 3.74696 55.9317 3.75426 55.861 3.76153C55.7566 3.77226 55.6528 3.78292 55.5455 3.78292H47.7355C46.9255 3.78292 46.4155 4.08292 46.2255 4.86292C45.9155 6.10292 45.6655 7.35292 45.4355 8.61292C45.3355 9.15292 45.6255 9.48292 46.1755 9.57292C46.4055 9.61292 46.6555 9.61292 46.8955 9.61292H51.8955C52.5255 9.61292 52.6455 9.52292 52.8155 8.91292C52.8753 8.6804 52.9175 8.44346 52.9625 8.19039L52.9625 8.19032C52.9852 8.06248 53.0087 7.93051 53.0355 7.79292L53.0155 7.76292ZM19.3855 3.7629H21.1555L21.1655 3.7529C21.092 4.10702 21.0184 4.45268 20.9458 4.79377C20.8605 5.19435 20.7766 5.58862 20.6955 5.9829C20.2959 7.88128 19.8962 9.76968 19.4966 11.6581L19.4955 11.6629C19.3855 12.1729 19.4555 12.2629 19.9755 12.2629H21.5655C22.0955 12.2629 22.2455 12.1429 22.3555 11.6229C22.4815 11.0424 22.6045 10.4588 22.7277 9.87396C22.8295 9.39089 22.9315 8.90689 23.0355 8.4229C23.3079 7.18034 23.573 5.93054 23.837 4.68582C23.8832 4.468 23.9294 4.25034 23.9755 4.0329C23.9778 4.02393 23.98 4.01502 23.9821 4.00619C24.0185 3.85764 24.049 3.7329 24.2755 3.7329C25.5355 3.7629 26.7955 3.7629 28.0555 3.7629C28.1995 3.7629 28.3435 3.7521 28.4875 3.7413C28.5835 3.7341 28.6795 3.7269 28.7755 3.7229C29.1355 3.7029 29.3155 3.5029 29.3855 3.1629C29.4223 2.97926 29.4623 2.79728 29.5023 2.61561C29.5603 2.35211 29.6182 2.08926 29.6655 1.8229C29.8055 1.0629 29.7655 1.0229 28.9955 1.0229H17.3455H17.0655C16.6355 1.0629 16.5155 1.1629 16.4155 1.5729C16.3495 1.85339 16.2866 2.1369 16.2233 2.42177C16.1715 2.65488 16.1195 2.88889 16.0655 3.1229C15.9555 3.5929 16.0355 3.7029 16.5155 3.7529C16.6255 3.7629 16.7455 3.7629 16.8555 3.7629H19.3855Z"/>
</mask>
<path fill-rule="evenodd" clip-rule="evenodd" d="M25.9055 12.2629C26.0113 12.0867 26.1121 11.9552 26.1974 11.8438C26.2331 11.7973 26.266 11.7542 26.2955 11.7129L26.2956 11.7128C27.1056 10.6028 27.9156 9.49288 28.7355 8.39292C29.3653 7.53494 29.9986 6.67875 30.6317 5.82283L30.6326 5.82172L30.6327 5.82153C31.4972 4.65276 32.3614 3.48451 33.2155 2.31292C33.8855 1.40292 34.7355 0.91292 35.8855 1.01292C36.0355 1.02792 36.1855 1.03292 36.3355 1.03792C36.4855 1.04292 36.6355 1.04792 36.7855 1.06292C37.4555 1.13292 37.8955 1.50292 38.1155 2.13292C38.4155 2.99292 38.6955 3.86292 38.9755 4.73292C39.3339 5.84287 39.6923 6.9553 40.0507 8.06774L40.0555 8.08284C40.4155 9.20037 40.7755 10.3179 41.1355 11.4329L41.1659 11.5278C41.3462 12.088 41.4179 12.3108 40.5455 12.2729C39.9255 12.2429 39.2955 12.2529 38.6755 12.2729C38.3855 12.2829 38.2355 12.1729 38.1555 11.9029C38.1031 11.7351 38.0482 11.5684 37.9934 11.4021L37.9934 11.402C37.8915 11.0929 37.7901 10.785 37.7055 10.4729C37.6455 10.2629 37.5355 10.1929 37.3355 10.1929C35.1955 10.1929 33.0455 10.1929 30.9055 10.2029C30.7555 10.2029 30.5555 10.3229 30.4555 10.4429C30.201 10.7611 29.9615 11.0993 29.7228 11.4362C29.6239 11.5758 29.5251 11.7152 29.4255 11.8529C29.2255 12.1329 28.9655 12.2629 28.6055 12.2629C28.0695 12.2497 27.481 12.254 26.8747 12.2584H26.8746L26.8744 12.2584C26.5645 12.2606 26.25 12.2629 25.9355 12.2629H25.9055ZM35.4155 3.58292C34.748 4.43193 34.1354 5.29808 33.5234 6.16331C33.0902 6.77578 32.6573 7.38779 32.2055 7.99292H36.9155C36.4855 6.62292 35.5255 3.74292 35.4155 3.58292ZM69.9355 5.49291H60.9855L60.9755 5.46291C61.1055 4.29291 61.6255 3.69291 62.6355 3.67291C63.6155 3.65291 64.5955 3.65291 65.5755 3.65291H69.8255C70.3155 3.64291 70.5055 3.50291 70.6055 3.05291C70.6256 2.96244 70.6461 2.87157 70.6667 2.78038L70.668 2.77473L70.6681 2.77454C70.7494 2.41401 70.832 2.04846 70.8955 1.68291C70.9242 1.53221 70.9272 1.37121 70.9303 1.20361V1.20317C70.9315 1.13736 70.9327 1.07053 70.9355 1.00291H70.4055H63.4655C63.1155 1.00291 62.7555 1.02291 62.4055 1.06291C60.3055 1.29291 58.9255 2.39291 58.3955 4.46291C58.1455 5.44291 57.9255 6.44291 57.7355 7.44291C57.5955 8.17291 57.4555 8.92291 57.4355 9.66291C57.3955 10.8329 57.9955 11.6329 59.1155 11.9629C59.6555 12.1229 60.2255 12.2329 60.7755 12.2329C62.6128 12.2479 64.4556 12.246 66.2999 12.2442H66.3001H66.3002L66.3026 12.2442C66.9168 12.2435 67.5312 12.2429 68.1455 12.2429C68.4655 12.2429 68.6855 12.1129 68.7555 11.8129C68.868 11.3555 68.9636 10.8981 69.0592 10.4407L69.0593 10.4405C69.0912 10.288 69.123 10.1354 69.1555 9.98291C69.1955 9.81291 69.1355 9.70291 68.9455 9.68291C68.8878 9.67766 68.8308 9.67173 68.7741 9.66582C68.6147 9.64923 68.4578 9.63291 68.2955 9.63291C66.0755 9.62291 63.8555 9.62291 61.6355 9.62291C61.4255 9.62291 61.2155 9.60291 61.0155 9.56291C60.5755 9.47291 60.3655 9.24291 60.3655 8.78291C60.3918 8.50235 60.4412 8.22947 60.5001 7.90363L60.5002 7.90359L60.5255 7.76291H60.7855H64.4055H68.7755C69.4055 7.76291 69.5155 7.68291 69.6655 7.08291C69.6796 7.02688 69.6941 6.97084 69.7087 6.91468L69.7089 6.91372C69.7568 6.72965 69.8049 6.54421 69.8355 6.35291C69.8586 6.19764 69.8749 6.04236 69.8923 5.87758L69.8923 5.8774L69.8924 5.87686L69.8925 5.8762C69.9053 5.75487 69.9186 5.62837 69.9355 5.49291ZM14.9555 1.0529C14.9158 1.27341 14.8781 1.49003 14.8406 1.70533L14.8405 1.70549L14.8405 1.70575L14.8405 1.70587C14.793 1.97858 14.7458 2.24918 14.6955 2.5229C14.6955 2.54956 14.6866 2.57623 14.6778 2.6029C14.6733 2.61623 14.6689 2.62956 14.6655 2.6429C14.4555 3.6429 14.4255 3.6729 13.3955 3.6729C11.0555 3.6729 8.70554 3.6729 6.36553 3.6629C5.74554 3.6629 5.53553 3.8329 5.40553 4.4529C5.21553 5.3829 5.30553 5.4829 6.25553 5.4829C6.82591 5.4829 7.39628 5.48067 7.96628 5.47845H7.96629H7.9663H7.96631C9.10519 5.474 10.2426 5.46957 11.3755 5.4829C11.7655 5.4829 12.1655 5.5229 12.5455 5.6129C13.5355 5.8429 14.0855 6.6429 13.9455 7.7329C13.8455 8.5229 13.6855 9.3229 13.4355 10.0729C12.9755 11.4629 11.8155 12.2529 10.2455 12.2629C8.29257 12.2762 6.34405 12.2718 4.39405 12.2673H4.39391H4.39376H4.39362C3.41821 12.2651 2.44243 12.2629 1.46554 12.2629C1.04554 12.2629 0.945535 12.1329 1.02554 11.7329C1.12554 11.2429 1.22554 10.7529 1.33554 10.2729C1.45554 9.7629 1.58554 9.6629 2.11554 9.6529H5.08553H9.80553C10.6055 9.6529 10.7755 9.5129 10.9255 8.7129C10.9305 8.67791 10.938 8.64292 10.9455 8.60793L10.9455 8.6079C10.953 8.5729 10.9605 8.5379 10.9655 8.5029C11.0355 7.9029 10.9255 7.7829 10.3255 7.7829H4.66554C4.39554 7.7829 4.12553 7.7529 3.86553 7.6929C2.83553 7.4529 2.23554 6.6429 2.36554 5.5729C2.45554 4.8229 2.60554 4.0729 2.82554 3.3429C3.24554 1.9429 4.42553 1.0529 5.92553 1.0329C7.99117 1.00489 10.0568 1.0112 12.119 1.0175C13.0019 1.0202 13.8842 1.0229 14.7655 1.0229C14.7958 1.0229 14.826 1.02861 14.8865 1.04004L14.8865 1.04004L14.8865 1.04005C14.9061 1.04374 14.9287 1.04802 14.9555 1.0529ZM53.0155 7.76292H52.5955H48.7855C48.2855 7.76292 48.1855 7.64292 48.2755 7.16292C48.3555 6.76292 48.4355 6.36292 48.5355 5.97292C48.6055 5.68292 48.7855 5.51292 49.1155 5.51292H55.5555C56.1055 5.51292 56.1555 5.59292 56.0455 6.12292C55.7555 7.46292 55.4655 8.80292 55.1655 10.1429C55.1055 10.4129 54.9955 10.6829 54.8755 10.9329C54.4555 11.8229 53.7255 12.2629 52.7555 12.2629C50.4555 12.2729 48.1555 12.2829 45.8455 12.2629C45.3255 12.2629 44.8055 12.1729 44.3055 12.0529C42.9055 11.7029 42.2455 10.7529 42.4455 9.27292C42.6755 7.63292 43.0455 6.00292 43.4455 4.39292C43.7655 3.12292 44.4755 2.09292 45.7255 1.54292C46.4855 1.21292 47.2955 1.03292 48.1255 1.03292C49.9589 1.01958 51.7922 1.02403 53.6255 1.02847C54.5422 1.03069 55.4589 1.03292 56.3755 1.03292H56.4655C57.0255 1.05292 57.0855 1.12292 56.9755 1.66292C56.9255 1.91794 56.8705 2.17297 56.8155 2.42799C56.7605 2.68297 56.7055 2.93794 56.6555 3.19292C56.5855 3.51292 56.4155 3.71292 56.0755 3.74292C56.0028 3.74696 55.9317 3.75426 55.861 3.76153C55.7566 3.77226 55.6528 3.78292 55.5455 3.78292H47.7355C46.9255 3.78292 46.4155 4.08292 46.2255 4.86292C45.9155 6.10292 45.6655 7.35292 45.4355 8.61292C45.3355 9.15292 45.6255 9.48292 46.1755 9.57292C46.4055 9.61292 46.6555 9.61292 46.8955 9.61292H51.8955C52.5255 9.61292 52.6455 9.52292 52.8155 8.91292C52.8753 8.6804 52.9175 8.44346 52.9625 8.19039L52.9625 8.19032C52.9852 8.06248 53.0087 7.93051 53.0355 7.79292L53.0155 7.76292ZM19.3855 3.7629H21.1555L21.1655 3.7529C21.092 4.10702 21.0184 4.45268 20.9458 4.79377C20.8605 5.19435 20.7766 5.58862 20.6955 5.9829C20.2959 7.88128 19.8962 9.76968 19.4966 11.6581L19.4955 11.6629C19.3855 12.1729 19.4555 12.2629 19.9755 12.2629H21.5655C22.0955 12.2629 22.2455 12.1429 22.3555 11.6229C22.4815 11.0424 22.6045 10.4588 22.7277 9.87396C22.8295 9.39089 22.9315 8.90689 23.0355 8.4229C23.3079 7.18034 23.573 5.93054 23.837 4.68582C23.8832 4.468 23.9294 4.25034 23.9755 4.0329C23.9778 4.02393 23.98 4.01502 23.9821 4.00619C24.0185 3.85764 24.049 3.7329 24.2755 3.7329C25.5355 3.7629 26.7955 3.7629 28.0555 3.7629C28.1995 3.7629 28.3435 3.7521 28.4875 3.7413C28.5835 3.7341 28.6795 3.7269 28.7755 3.7229C29.1355 3.7029 29.3155 3.5029 29.3855 3.1629C29.4223 2.97926 29.4623 2.79728 29.5023 2.61561C29.5603 2.35211 29.6182 2.08926 29.6655 1.8229C29.8055 1.0629 29.7655 1.0229 28.9955 1.0229H17.3455H17.0655C16.6355 1.0629 16.5155 1.1629 16.4155 1.5729C16.3495 1.85339 16.2866 2.1369 16.2233 2.42177C16.1715 2.65488 16.1195 2.88889 16.0655 3.1229C15.9555 3.5929 16.0355 3.7029 16.5155 3.7529C16.6255 3.7629 16.7455 3.7629 16.8555 3.7629H19.3855Z" fill="var(--fill-0, #545454)"/>
<path d="M26.1974 11.8438L26.9911 12.4521L26.9911 12.4521L26.1974 11.8438ZM25.9055 12.2629L25.048 11.7484L24.1394 13.2629H25.9055V12.2629ZM26.2955 11.7129L25.4853 11.1268L25.4818 11.1317L26.2955 11.7129ZM26.2956 11.7128L25.4878 11.1233L25.4854 11.1267L26.2956 11.7128ZM28.7355 8.39292L29.5373 8.9906L29.5417 8.98463L28.7355 8.39292ZM30.6317 5.82283L31.4357 6.41752L31.4358 6.41737L30.6317 5.82283ZM30.6326 5.82172L31.4366 6.41625L31.437 6.41576L30.6326 5.82172ZM30.6327 5.82153L29.8287 5.22684L29.8283 5.22749L30.6327 5.82153ZM33.2155 2.31292L32.4102 1.72002L32.4075 1.7238L33.2155 2.31292ZM35.8855 1.01292L35.985 0.0177993L35.9722 0.0166791L35.8855 1.01292ZM36.3355 1.03792L36.3022 2.03736V2.03736L36.3355 1.03792ZM36.7855 1.06292L36.8894 0.0683235L36.885 0.0678827L36.7855 1.06292ZM38.1155 2.13292L39.0597 1.80355L39.0596 1.80324L38.1155 2.13292ZM38.9755 4.73292L38.0236 5.03928L38.0239 5.04017L38.9755 4.73292ZM40.0507 8.06774L41.0025 7.76118L41.0025 7.76111L40.0507 8.06774ZM40.0555 8.08284L39.1037 8.38939L39.1037 8.38947L40.0555 8.08284ZM41.1355 11.4329L42.0879 11.1279L42.0872 11.1257L41.1355 11.4329ZM41.1659 11.5278L40.2136 11.8328L40.214 11.8341L41.1659 11.5278ZM40.5455 12.2729L40.4972 13.2718L40.5021 13.272L40.5455 12.2729ZM38.6755 12.2729L38.6433 11.2734L38.6411 11.2735L38.6755 12.2729ZM38.1555 11.9029L39.1143 11.6188L39.1122 11.6117L39.11 11.6046L38.1555 11.9029ZM37.9934 11.4021L38.9432 11.0892L38.9421 11.0859L37.9934 11.4021ZM37.9934 11.402L37.0436 11.7149L37.0447 11.7182L37.9934 11.402ZM37.7055 10.4729L38.6709 10.2115L38.6671 10.1982L37.7055 10.4729ZM30.9055 10.2029V11.2029L30.9102 11.2029L30.9055 10.2029ZM30.4555 10.4429L29.6873 9.80273L29.6809 9.81041L29.6747 9.81822L30.4555 10.4429ZM29.7228 11.4362L30.5388 12.0143L30.5388 12.0143L29.7228 11.4362ZM29.4255 11.8529L28.6153 11.2668L28.6118 11.2717L29.4255 11.8529ZM28.6055 12.2629L28.5809 13.2626L28.5932 13.2629H28.6055V12.2629ZM26.8747 12.2584V13.2584L26.882 13.2583L26.8747 12.2584ZM26.8746 12.2584V11.2583L26.8618 11.2585L26.8746 12.2584ZM26.8744 12.2584L26.8817 13.2584L26.8872 13.2583L26.8744 12.2584ZM33.5234 6.16331L34.3398 6.74078V6.74078L33.5234 6.16331ZM35.4155 3.58292L36.2396 3.01639L35.4695 1.8963L34.6294 2.96486L35.4155 3.58292ZM32.2055 7.99292L31.4042 7.39468L30.211 8.99292H32.2055V7.99292ZM36.9155 7.99292V8.99292H38.2775L37.8696 7.69345L36.9155 7.99292ZM60.9855 5.49291L60.0368 5.80898L60.2647 6.49291H60.9855V5.49291ZM69.9355 5.49291L70.9278 5.61692L71.0683 4.49291H69.9355V5.49291ZM60.9755 5.46291L59.9817 5.35248L59.9574 5.57069L60.0268 5.77898L60.9755 5.46291ZM62.6355 3.67291L62.6553 4.67271L62.6559 4.6727L62.6355 3.67291ZM69.8255 3.65291V4.65291H69.8357L69.8459 4.6527L69.8255 3.65291ZM70.6055 3.05291L71.5817 3.26984V3.26984L70.6055 3.05291ZM70.6667 2.78038L69.6915 2.55919L69.6913 2.5602L70.6667 2.78038ZM70.668 2.77473L69.6974 2.53396L69.695 2.54372L69.6928 2.55354L70.668 2.77473ZM70.6681 2.77454L71.6386 3.01531L71.6412 3.00505L71.6435 2.99475L70.6681 2.77454ZM70.8955 1.68291L69.9132 1.49582L69.9117 1.50368L69.9103 1.51156L70.8955 1.68291ZM70.9303 1.20361L71.9301 1.22195L71.9303 1.21278V1.20361H70.9303ZM70.9303 1.20317L69.9304 1.18473L69.9303 1.19395V1.20317H70.9303ZM70.9355 1.00291L71.9347 1.04451L71.978 0.00291002H70.9355V1.00291ZM62.4055 1.06291L62.5144 2.05698L62.5191 2.05644L62.4055 1.06291ZM58.3955 4.46291L57.4268 4.21487L57.4266 4.21572L58.3955 4.46291ZM57.7355 7.44291L58.7176 7.63126L58.718 7.62957L57.7355 7.44291ZM57.4355 9.66291L58.435 9.69708L58.4352 9.68993L57.4355 9.66291ZM59.1155 11.9629L59.3996 11.0041L59.3982 11.0037L59.1155 11.9629ZM60.7755 12.2329L60.7837 11.2329H60.7755V12.2329ZM66.2999 12.2442V11.2442L66.2989 11.2442L66.2999 12.2442ZM66.3002 12.2442V13.2442L66.3015 13.2442L66.3002 12.2442ZM66.3026 12.2442L66.3015 11.2442H66.3013L66.3026 12.2442ZM68.7555 11.8129L67.7844 11.5741L67.7817 11.5857L68.7555 11.8129ZM69.0592 10.4407L70.0381 10.6453L70.0433 10.6206L70.0472 10.5956L69.0592 10.4407ZM69.0593 10.4405L68.0804 10.2359L68.0753 10.2606L68.0713 10.2856L69.0593 10.4405ZM69.1555 9.98291L68.1821 9.75387L68.1797 9.76414L68.1775 9.77447L69.1555 9.98291ZM68.9455 9.68291L69.0502 8.68841L69.0432 8.68766L69.0361 8.68702L68.9455 9.68291ZM68.7741 9.66582L68.8776 8.6712L68.8776 8.6712L68.7741 9.66582ZM68.2955 9.63291L68.291 10.6329H68.2955V9.63291ZM61.0155 9.56291L60.8151 10.5426L60.8194 10.5435L61.0155 9.56291ZM60.3655 8.78291L59.3699 8.68957L59.3655 8.73614V8.78291H60.3655ZM60.5001 7.90363L59.5414 7.61954L59.5258 7.67189L59.5161 7.72562L60.5001 7.90363ZM60.5002 7.90359L61.459 8.18768L61.4745 8.1351L61.4843 8.08113L60.5002 7.90359ZM60.5255 7.76291V6.76291H59.6898L59.5414 7.58537L60.5255 7.76291ZM69.6655 7.08291L70.6357 7.32545L70.6357 7.32543L69.6655 7.08291ZM69.7087 6.91468L68.7414 6.66097L68.7408 6.66328L69.7087 6.91468ZM69.7089 6.91372L70.6762 7.16744L70.6768 7.16518L69.7089 6.91372ZM69.8355 6.35291L70.823 6.51092L70.8247 6.4995L69.8355 6.35291ZM69.8923 5.87758L68.9003 5.75161L68.899 5.76212L68.8978 5.77265L69.8923 5.87758ZM69.8923 5.8774L70.8844 6.00337L70.887 5.98294L70.8887 5.96243L69.8923 5.8774ZM69.8924 5.87686L68.8977 5.77397L68.8968 5.7829L68.896 5.79184L69.8924 5.87686ZM69.8925 5.8762L68.898 5.77127L68.8978 5.7733L69.8925 5.8762ZM14.8406 1.70533L15.8248 1.88227L15.8257 1.877L14.8406 1.70533ZM14.9555 1.0529L15.9397 1.23005L16.1166 0.2476L15.1344 0.0690266L14.9555 1.0529ZM14.8405 1.70549L13.8563 1.52855L13.8559 1.53105L14.8405 1.70549ZM14.8405 1.70575L13.8558 1.5313L13.8547 1.5377L14.8405 1.70575ZM14.8405 1.70587L15.8256 1.87754L15.8263 1.87392L14.8405 1.70587ZM14.6955 2.5229L13.712 2.34225L13.6955 2.43182V2.5229H14.6955ZM14.6778 2.6029L13.7291 2.28666L13.7291 2.28668L14.6778 2.6029ZM14.6655 2.6429L13.6954 2.40037L13.6908 2.41879L13.6869 2.43738L14.6655 2.6429ZM6.36553 3.6629L6.36981 2.6629H6.36553V3.6629ZM5.40553 4.4529L4.4268 4.24768L4.42577 4.25273L5.40553 4.4529ZM7.96628 5.47845V4.47844L7.96238 4.47846L7.96628 5.47845ZM7.96631 5.47845V6.47846L7.97021 6.47844L7.96631 5.47845ZM11.3755 5.4829L11.3638 6.4829H11.3755V5.4829ZM12.5455 5.6129L12.3151 6.58599L12.3192 6.58695L12.5455 5.6129ZM13.9455 7.7329L12.9537 7.6055L12.9535 7.60732L13.9455 7.7329ZM13.4355 10.0729L12.4868 9.75667L12.4862 9.75872L13.4355 10.0729ZM10.2455 12.2629L10.2392 11.2629L10.2387 11.2629L10.2455 12.2629ZM4.39405 12.2673L4.39633 11.2673H4.39405V12.2673ZM4.39362 12.2673L4.39134 13.2673H4.39362V12.2673ZM1.02554 11.7329L0.0457234 11.5329L0.0449543 11.5368L1.02554 11.7329ZM1.33554 10.2729L0.362101 10.0439L0.360803 10.0495L1.33554 10.2729ZM2.11554 9.6529V8.6529H2.1061L2.09667 8.65307L2.11554 9.6529ZM10.9255 8.7129L11.9084 8.89718L11.9124 8.87583L11.9155 8.85431L10.9255 8.7129ZM10.9455 8.60793L9.97314 8.37456L9.97028 8.38645L9.96772 8.39842L10.9455 8.60793ZM10.9455 8.6079L11.9179 8.84127L11.9208 8.82938L11.9233 8.81742L10.9455 8.6079ZM10.9655 8.5029L11.9555 8.64432L11.9573 8.63157L11.9588 8.61878L10.9655 8.5029ZM3.86553 7.6929L3.6386 8.66681L3.64068 8.66729L3.86553 7.6929ZM2.36554 5.5729L3.35824 5.6935L3.35841 5.69204L2.36554 5.5729ZM2.82554 3.3429L3.783 3.63145L3.78336 3.63024L2.82554 3.3429ZM5.92553 1.0329L5.93887 2.03281L5.93909 2.0328L5.92553 1.0329ZM12.119 1.0175L12.1159 2.0175L12.119 1.0175ZM14.8865 1.04004L14.7008 2.02267L14.7081 2.02401L14.8865 1.04004ZM14.8865 1.04004L15.0725 0.0574652L15.0648 0.0560732L14.8865 1.04004ZM14.8865 1.04005L14.7005 2.0226L14.7008 2.02266L14.8865 1.04005ZM53.0155 7.76292L53.8476 7.20828L53.5508 6.76292H53.0155V7.76292ZM48.2755 7.16292L47.2949 6.96679L47.2927 6.97863L48.2755 7.16292ZM48.5355 5.97292L49.5042 6.2213L49.506 6.21444L49.5076 6.20756L48.5355 5.97292ZM56.0455 6.12292L57.0229 6.33444L57.0247 6.32613L56.0455 6.12292ZM55.1655 10.1429L54.1897 9.92444L54.1893 9.92598L55.1655 10.1429ZM54.8755 10.9329L53.974 10.5002L53.9712 10.5061L54.8755 10.9329ZM52.7555 12.2629V11.2629L52.7512 11.2629L52.7555 12.2629ZM45.8455 12.2629L45.8542 11.2629H45.8455V12.2629ZM44.3055 12.0529L44.063 13.0231L44.0722 13.0253L44.3055 12.0529ZM42.4455 9.27292L41.4552 9.13403L41.4545 9.139L42.4455 9.27292ZM43.4455 4.39292L42.4758 4.14858L42.475 4.1518L43.4455 4.39292ZM45.7255 1.54292L45.3272 0.625645L45.3228 0.627602L45.7255 1.54292ZM48.1255 1.03292V2.03294L48.1328 2.03289L48.1255 1.03292ZM53.6255 1.02847L53.6231 2.02847L53.6255 1.02847ZM56.4655 1.03292L56.5012 0.0335543L56.4834 0.0329171H56.4655V1.03292ZM56.9755 1.66292L55.9956 1.46331L55.9942 1.47051L56.9755 1.66292ZM56.8155 2.42799L57.793 2.63883L57.793 2.63882L56.8155 2.42799ZM56.6555 3.19292L57.6324 3.40661L57.6348 3.396L57.6368 3.38533L56.6555 3.19292ZM56.0755 3.74292L56.131 4.74138L56.1472 4.74048L56.1634 4.73905L56.0755 3.74292ZM55.861 3.76153L55.9632 4.75629V4.75629L55.861 3.76153ZM46.2255 4.86292L47.1957 5.10546L47.1971 5.09958L46.2255 4.86292ZM45.4355 8.61292L46.4188 8.79501L46.4193 8.79249L45.4355 8.61292ZM46.1755 9.57292L46.3469 8.58766L46.337 8.58604L46.1755 9.57292ZM52.8155 8.91292L53.7788 9.18138L53.7815 9.17169L53.784 9.16195L52.8155 8.91292ZM52.9625 8.19039L53.947 8.36548L53.9483 8.35819L52.9625 8.19039ZM52.9625 8.19032L51.9779 8.01523L51.9767 8.02252L52.9625 8.19032ZM53.0355 7.79292L54.017 7.98443L54.0958 7.58062L53.8676 7.23828L53.0355 7.79292ZM21.1555 3.7629V4.7629H21.5697L21.8626 4.47001L21.1555 3.7629ZM21.1655 3.7529L22.1446 3.95635L22.8257 0.678551L20.4584 3.04578L21.1655 3.7529ZM20.9458 4.79377L21.9238 5.00198V5.00197L20.9458 4.79377ZM20.6955 5.9829L21.6741 6.18891L21.6751 6.18418L20.6955 5.9829ZM19.4966 11.6581L20.4748 11.8654L20.4749 11.8651L19.4966 11.6581ZM19.4955 11.6629L20.4731 11.8737L20.4738 11.8703L19.4955 11.6629ZM22.3555 11.6229L21.3783 11.4108L21.3772 11.4159L22.3555 11.6229ZM22.7277 9.87396L23.7062 10.0802V10.0802L22.7277 9.87396ZM23.0355 8.4229L22.0587 8.2088L22.0579 8.21275L23.0355 8.4229ZM23.837 4.68582L22.8588 4.47832V4.47832L23.837 4.68582ZM23.9755 4.0329L23.0054 3.79038L23.0011 3.80772L22.9973 3.8252L23.9755 4.0329ZM23.9821 4.00619L23.0108 3.76848L23.0108 3.76857L23.9821 4.00619ZM24.2755 3.7329L24.2993 2.73318L24.2874 2.7329H24.2755V3.7329ZM28.4875 3.7413L28.4127 2.7441L28.4127 2.7441L28.4875 3.7413ZM28.7755 3.7229L28.8172 4.72213L28.831 4.72136L28.7755 3.7229ZM29.3855 3.1629L30.365 3.36455L30.3661 3.35901L29.3855 3.1629ZM29.5023 2.61561L28.5257 2.40062L28.5257 2.40063L29.5023 2.61561ZM29.6655 1.8229L28.6821 1.64173L28.681 1.64787L29.6655 1.8229ZM17.0655 1.0229V0.022899H17.0191L16.9729 0.0271978L17.0655 1.0229ZM16.4155 1.5729L15.444 1.33594L15.4421 1.34386L16.4155 1.5729ZM16.2233 2.42177L15.2471 2.20494L15.2471 2.20494L16.2233 2.42177ZM16.0655 3.1229L17.0392 3.35079L17.0399 3.34776L16.0655 3.1229ZM16.5155 3.7529L16.4119 4.7476L16.425 4.74879L16.5155 3.7529ZM26.1974 11.8438L25.4036 11.2356C25.317 11.3486 25.1856 11.5192 25.048 11.7484L25.9055 12.2629L26.763 12.7774C26.837 12.6541 26.9071 12.5617 26.9911 12.4521L26.1974 11.8438ZM26.2955 11.7129L25.4818 11.1317C25.4639 11.1567 25.4417 11.1859 25.4036 11.2356L26.1974 11.8438L26.9911 12.4521C27.0244 12.4086 27.0682 12.3517 27.1093 12.2942L26.2955 11.7129ZM26.2956 11.7128L25.4854 11.1267L25.4853 11.1268L26.2955 11.7129L27.1058 12.299L27.1059 12.2989L26.2956 11.7128ZM28.7355 8.39292L27.9338 7.79525C27.1103 8.89997 26.2973 10.0141 25.4878 11.1233L26.2956 11.7128L27.1034 12.3023C27.9139 11.1916 28.7209 10.0858 29.5373 8.99058L28.7355 8.39292ZM30.6317 5.82283L29.8278 5.22815C29.1948 6.08381 28.5604 6.94149 27.9294 7.80121L28.7355 8.39292L29.5417 8.98463C30.1702 8.12839 30.8024 7.27368 31.4357 6.41752L30.6317 5.82283ZM30.6326 5.82172L29.8285 5.22718L29.8277 5.22829L30.6317 5.82283L31.4358 6.41737L31.4366 6.41625L30.6326 5.82172ZM30.6327 5.82153L29.8283 5.22749L29.8281 5.22767L30.6326 5.82172L31.437 6.41576L31.4371 6.41557L30.6327 5.82153ZM33.2155 2.31292L32.4075 1.7238C31.5557 2.89213 30.6936 4.05761 29.8287 5.22685L30.6327 5.82153L31.4366 6.41622C32.3008 5.24791 33.167 4.07688 34.0236 2.90204L33.2155 2.31292ZM35.8855 1.01292L35.9722 0.0166791C34.4081 -0.119329 33.2438 0.587899 32.4103 1.72002L33.2155 2.31292L34.0208 2.90582C34.5273 2.21794 35.063 1.94517 35.7989 2.00916L35.8855 1.01292ZM36.3355 1.03792L36.3689 0.0384748C36.2134 0.0332937 36.0966 0.0290336 35.985 0.0178824L35.8855 1.01292L35.786 2.00796C35.9745 2.02681 36.1577 2.03255 36.3022 2.03736L36.3355 1.03792ZM36.7855 1.06292L36.885 0.0678827C36.6966 0.0490335 36.5134 0.0432936 36.3689 0.0384748L36.3355 1.03792L36.3022 2.03736C36.4577 2.04255 36.5745 2.04681 36.686 2.05796L36.7855 1.06292ZM38.1155 2.13292L39.0596 1.80324C38.9007 1.3481 38.6413 0.93022 38.2504 0.612207C37.8571 0.292276 37.3885 0.120473 36.8894 0.0683332L36.7855 1.06292L36.6816 2.05751C36.8526 2.07537 36.9389 2.12356 36.9882 2.16363C37.0398 2.20562 37.1104 2.28774 37.1714 2.4626L38.1155 2.13292ZM38.9755 4.73292L39.9275 4.42656C39.6481 3.55851 39.3644 2.67692 39.0597 1.80355L38.1155 2.13292L37.1713 2.46229C37.4667 3.30892 37.743 4.16733 38.0236 5.03928L38.9755 4.73292ZM40.0507 8.06774L41.0025 7.76111C40.6441 6.64872 40.2857 5.53598 39.9272 4.42567L38.9755 4.73292L38.0239 5.04017C38.3822 6.14976 38.7404 7.26188 39.0988 8.37437L40.0507 8.06774ZM40.0555 8.08284L41.0074 7.77629L41.0025 7.76118L40.0507 8.06774L39.0988 8.37429L39.1037 8.38939L40.0555 8.08284ZM41.1355 11.4329L42.0872 11.1257C41.7273 10.011 41.3674 8.89379 41.0073 7.77621L40.0555 8.08284L39.1037 8.38947C39.4637 9.50694 39.8238 10.6248 40.1839 11.7402L41.1355 11.4329ZM41.1659 11.5278L42.1183 11.2227L42.0879 11.1279L41.1355 11.4329L40.1832 11.738L40.2136 11.8328L41.1659 11.5278ZM40.5455 12.2729L40.5021 13.272C40.7426 13.2824 41.0049 13.2808 41.2459 13.229C41.4887 13.1768 41.8844 13.0341 42.1204 12.6178C42.3348 12.2396 42.2805 11.8623 42.2508 11.7029C42.2181 11.5271 42.1558 11.3394 42.1179 11.2215L41.1659 11.5278L40.214 11.8341C40.2375 11.9072 40.2541 11.959 40.2673 12.0039C40.2735 12.0251 40.2778 12.0409 40.2808 12.0526C40.2838 12.0644 40.2847 12.0694 40.2846 12.0689C40.2845 12.0685 40.2828 12.0591 40.2813 12.0425C40.2799 12.0261 40.2784 11.998 40.2806 11.9612C40.285 11.8862 40.3054 11.764 40.3805 11.6315C40.5479 11.3362 40.8093 11.2771 40.8258 11.2736C40.8405 11.2704 40.7846 11.2824 40.589 11.2739L40.5455 12.2729ZM38.6755 12.2729L38.7078 13.2724C39.3194 13.2527 39.9177 13.2437 40.4972 13.2718L40.5455 12.2729L40.5939 11.2741C39.9334 11.2421 39.2717 11.2532 38.6433 11.2734L38.6755 12.2729ZM38.1555 11.9029L37.1967 12.187C37.2722 12.4415 37.4239 12.769 37.7544 13.0058C38.0837 13.2417 38.4425 13.2815 38.71 13.2723L38.6755 12.2729L38.6411 11.2735C38.6186 11.2743 38.7574 11.2641 38.9192 11.38C39.0822 11.4968 39.1189 11.6343 39.1143 11.6188L38.1555 11.9029ZM37.9934 11.4021L37.0436 11.7151C37.0988 11.8826 37.1513 12.0419 37.2011 12.2012L38.1555 11.9029L39.11 11.6046C39.0549 11.4282 38.9976 11.2543 38.9432 11.0892L37.9934 11.4021ZM37.9934 11.402L37.0447 11.7182L37.0447 11.7184L37.9934 11.4021L38.9421 11.0859L38.942 11.0858L37.9934 11.402ZM37.7055 10.4729L36.7403 10.7343C36.833 11.0767 36.9431 11.4101 37.0436 11.7149L37.9934 11.402L38.9431 11.0891C38.8398 10.7756 38.7471 10.4933 38.6708 10.2115L37.7055 10.4729ZM37.3355 10.1929V11.1929C37.3325 11.1929 37.1657 11.1948 36.9839 11.0622C36.7971 10.926 36.7479 10.7611 36.744 10.7476L37.7055 10.4729L38.6671 10.1982C38.6032 9.97476 38.469 9.66985 38.1622 9.44617C37.8603 9.22604 37.5386 9.19292 37.3355 9.19292V10.1929ZM30.9055 10.2029L30.9102 11.2029C33.0475 11.1929 35.1951 11.1929 37.3355 11.1929V10.1929V9.19292C35.1959 9.19292 33.0436 9.19292 30.9009 9.20293L30.9055 10.2029ZM30.4555 10.4429L31.2238 11.0831C31.1985 11.1134 31.1793 11.1295 31.1716 11.1357C31.1629 11.1427 31.155 11.1479 31.1463 11.1527C31.1382 11.1572 31.1194 11.1669 31.0882 11.1768C31.0597 11.1858 30.9962 11.2029 30.9055 11.2029V10.2029V9.20292C30.5944 9.20292 30.3349 9.31583 30.1773 9.40313C30.0078 9.497 29.83 9.63151 29.6873 9.80273L30.4555 10.4429ZM29.7228 11.4362L30.5388 12.0143C30.7805 11.673 31.0032 11.3591 31.2364 11.0676L30.4555 10.4429L29.6747 9.81822C29.3988 10.1631 29.1424 10.5255 28.9067 10.8582L29.7228 11.4362ZM29.4255 11.8529L30.2358 12.439C30.3388 12.2966 30.4404 12.1532 30.5388 12.0143L29.7228 11.4362L28.9067 10.8582C28.8074 10.9985 28.7115 11.1338 28.6153 11.2668L29.4255 11.8529ZM28.6055 12.2629V13.2629C28.9079 13.2629 29.2222 13.2076 29.5228 13.0573C29.8256 12.9059 30.0598 12.6854 30.2393 12.4342L29.4255 11.8529L28.6118 11.2717C28.6002 11.288 28.5957 11.2909 28.6 11.287C28.6022 11.2852 28.6059 11.2821 28.6111 11.2786C28.6163 11.275 28.6221 11.2716 28.6283 11.2685C28.6345 11.2654 28.6399 11.2632 28.6442 11.2617C28.6484 11.2603 28.6505 11.2599 28.65 11.26C28.649 11.2602 28.6355 11.2629 28.6055 11.2629V12.2629ZM26.8747 12.2584L26.882 13.2583C27.4922 13.2539 28.0639 13.2499 28.5809 13.2626L28.6055 12.2629L28.6302 11.2632C28.0752 11.2495 27.4698 11.254 26.8674 11.2584L26.8747 12.2584ZM26.8746 12.2584V13.2584H26.8747V12.2584V11.2584H26.8746V12.2584ZM26.8744 12.2584L26.8872 13.2583L26.8874 13.2583L26.8746 12.2584L26.8618 11.2585L26.8616 11.2585L26.8744 12.2584ZM25.9355 12.2629V13.2629C26.2543 13.2629 26.5724 13.2606 26.8817 13.2584L26.8744 12.2584L26.8671 11.2584C26.5567 11.2607 26.2458 11.2629 25.9355 11.2629V12.2629ZM25.9055 12.2629V13.2629H25.9355V12.2629V11.2629H25.9055V12.2629ZM33.5234 6.16331L34.3398 6.74078C34.9541 5.87238 35.5524 5.02685 36.2017 4.20098L35.4155 3.58292L34.6294 2.96486C33.9437 3.83701 33.3167 4.72379 32.707 5.58585L33.5234 6.16331ZM32.2055 7.99292L33.0069 8.59116C33.4676 7.97404 33.9078 7.35155 34.3398 6.74078L33.5234 6.16331L32.707 5.58585C32.2726 6.20001 31.8471 6.80153 31.4042 7.39468L32.2055 7.99292ZM36.9155 7.99292V6.99292H32.2055V7.99292V8.99292H36.9155V7.99292ZM35.4155 3.58292L34.5915 4.14945C34.5358 4.06839 34.511 4.00176 34.5292 4.04353C34.5346 4.05608 34.5453 4.08184 34.5619 4.12458C34.5946 4.20865 34.6392 4.32963 34.6942 4.48337C34.8035 4.78915 34.9451 5.20058 35.098 5.6539C35.4039 6.56032 35.7491 7.61584 35.9614 8.29238L36.9155 7.99292L37.8696 7.69345C37.652 7 37.3022 5.93052 36.993 5.01443C36.8385 4.55651 36.6926 4.13231 36.5775 3.81028C36.5203 3.65012 36.4685 3.50915 36.426 3.39974C36.405 3.34574 36.3833 3.29188 36.3624 3.244C36.3543 3.22533 36.3091 3.11745 36.2396 3.01639L35.4155 3.58292ZM60.9855 5.49291V6.49291H69.9355V5.49291V4.49291H60.9855V5.49291ZM60.9755 5.46291L60.0268 5.77898L60.0368 5.80898L60.9855 5.49291L61.9343 5.17684L61.9243 5.14684L60.9755 5.46291ZM62.6355 3.67291L62.6157 2.67311C61.9037 2.68721 61.2349 2.91655 60.7367 3.46276C60.2653 3.9796 60.0586 4.6598 59.9817 5.35248L60.9755 5.46291L61.9694 5.57334C62.0225 5.09602 62.1408 4.89122 62.2144 4.81056C62.2611 4.75927 62.3574 4.67861 62.6553 4.67271L62.6355 3.67291ZM65.5755 3.65291V2.65291C64.5972 2.65291 63.607 2.65288 62.6151 2.67312L62.6355 3.67291L62.6559 4.6727C63.624 4.65294 64.5938 4.65291 65.5755 4.65291V3.65291ZM69.8255 3.65291V2.65291H65.5755V3.65291V4.65291H69.8255V3.65291ZM70.6055 3.05291L69.6294 2.83598C69.6153 2.89926 69.6083 2.90254 69.6218 2.87632C69.6397 2.84163 69.6812 2.77936 69.7553 2.72285C69.8268 2.66826 69.8878 2.65044 69.9028 2.64678C69.9114 2.64467 69.8871 2.65145 69.8051 2.65312L69.8255 3.65291L69.8459 4.6527C70.148 4.64654 70.5868 4.60401 70.9683 4.31297C71.368 4.00809 71.5125 3.58132 71.5817 3.26984L70.6055 3.05291ZM70.6667 2.78038L69.6913 2.5602C69.6707 2.65123 69.6499 2.74366 69.6294 2.83598L70.6055 3.05291L71.5817 3.26984C71.6014 3.18123 71.6216 3.09192 71.6422 3.00055L70.6667 2.78038ZM70.668 2.77473L69.6928 2.55354L69.6915 2.55919L70.6667 2.78038L71.642 3.00157L71.6432 2.99591L70.668 2.77473ZM70.6681 2.77454L69.6975 2.53378L69.6974 2.53396L70.668 2.77473L71.6386 3.01549L71.6386 3.01531L70.6681 2.77454ZM70.8955 1.68291L69.9103 1.51156C69.8517 1.84844 69.7749 2.18965 69.6926 2.55433L70.6681 2.77454L71.6435 2.99475C71.724 2.63837 71.8122 2.24848 71.8808 1.85426L70.8955 1.68291ZM70.9303 1.20361L69.9304 1.18527C69.927 1.37123 69.9231 1.44394 69.9132 1.49582L70.8955 1.68291L71.8779 1.87C71.9254 1.62048 71.9274 1.37119 71.9301 1.22195L70.9303 1.20361ZM70.9303 1.20317H69.9303V1.20361H70.9303H71.9303V1.20317H70.9303ZM70.9355 1.00291L69.9364 0.961313C69.933 1.04237 69.9316 1.12064 69.9304 1.18473L70.9303 1.20317L71.9301 1.2216C71.9314 1.15407 71.9324 1.09869 71.9347 1.04451L70.9355 1.00291ZM70.4055 1.00291V2.00291H70.9355V1.00291V0.00291002H70.4055V1.00291ZM63.4655 1.00291V2.00291H70.4055V1.00291V0.00291002H63.4655V1.00291ZM62.4055 1.06291L62.5191 2.05644C62.8306 2.02084 63.1527 2.00291 63.4655 2.00291V1.00291V0.00291002C63.0784 0.00291002 62.6805 0.0249762 62.292 0.0693774L62.4055 1.06291ZM58.3955 4.46291L59.3643 4.71095C59.5867 3.84237 59.967 3.24604 60.4527 2.84055C60.9423 2.43179 61.6126 2.15574 62.5144 2.05697L62.4055 1.06291L62.2967 0.0688543C61.0985 0.200084 60.0288 0.589028 59.1709 1.30527C58.3091 2.02478 57.7344 3.01345 57.4268 4.21487L58.3955 4.46291ZM57.7355 7.44291L58.718 7.62957C58.9044 6.64833 59.12 5.66859 59.3645 4.7101L58.3955 4.46291L57.4266 4.21572C57.1711 5.21723 56.9467 6.2375 56.7531 7.25625L57.7355 7.44291ZM57.4355 9.66291L58.4352 9.68993C58.4526 9.04362 58.5757 8.37121 58.7176 7.63126L57.7355 7.44291L56.7534 7.25456C56.6153 7.97461 56.4584 8.8022 56.4359 9.63589L57.4355 9.66291ZM59.1155 11.9629L59.3982 11.0037C59.0035 10.8874 58.7766 10.7129 58.6461 10.5354C58.5172 10.3601 58.4212 10.0991 58.435 9.69708L57.4355 9.66291L56.4361 9.62874C56.4099 10.3967 56.5939 11.1207 57.035 11.7204C57.4745 12.318 58.1076 12.7084 58.8329 12.9221L59.1155 11.9629ZM60.7755 12.2329V11.2329C60.3522 11.2329 59.8821 11.1471 59.3996 11.0041L59.1155 11.9629L58.8315 12.9217C59.429 13.0988 60.0989 13.2329 60.7755 13.2329V12.2329ZM66.2999 12.2442L66.2989 11.2442C64.4538 11.246 62.6156 11.2479 60.7837 11.2329L60.7755 12.2329L60.7674 13.2329C62.61 13.2479 64.4574 13.246 66.3009 13.2442L66.2999 12.2442ZM66.3001 12.2442V11.2442H66.2999V12.2442V13.2442H66.3001V12.2442ZM66.3002 12.2442V11.2442H66.3001V12.2442V13.2442H66.3002V12.2442ZM66.3026 12.2442L66.3013 11.2442L66.299 11.2442L66.3002 12.2442L66.3015 13.2442L66.3038 13.2442L66.3026 12.2442ZM68.1455 12.2429V11.2429C67.5306 11.2429 66.9157 11.2435 66.3015 11.2442L66.3026 12.2442L66.3036 13.2442C66.9179 13.2435 67.5318 13.2429 68.1455 13.2429V12.2429ZM68.7555 11.8129L67.7817 11.5857C67.787 11.5629 67.8016 11.5163 67.8381 11.4603C67.8758 11.4025 67.9265 11.3509 67.985 11.3114C68.0986 11.2348 68.1801 11.2429 68.1455 11.2429V12.2429V13.2429C68.431 13.2429 68.7825 13.186 69.1036 12.9694C69.4455 12.7387 69.6455 12.3995 69.7294 12.0401L68.7555 11.8129ZM69.0592 10.4407L68.0804 10.2361C67.9842 10.6962 67.8921 11.1365 67.7845 11.5741L68.7555 11.8129L69.7266 12.0517C69.844 11.5745 69.9431 11.0999 70.0381 10.6453L69.0592 10.4407ZM69.0593 10.4405L68.0713 10.2856L68.0713 10.2857L69.0592 10.4407L70.0472 10.5956L70.0472 10.5955L69.0593 10.4405ZM69.1555 9.98291L68.1775 9.77447C68.1445 9.92925 68.1122 10.0837 68.0804 10.2359L69.0593 10.4405L70.0381 10.6451C70.0701 10.4923 70.1016 10.3416 70.1336 10.1913L69.1555 9.98291ZM68.9455 9.68291L68.8409 10.6774C68.7738 10.6704 68.4952 10.6206 68.3016 10.3267C68.12 10.0508 68.1721 9.79645 68.1821 9.75387L69.1555 9.98291L70.129 10.212C70.179 9.99937 70.2211 9.60499 69.972 9.22666C69.7109 8.83021 69.3073 8.71547 69.0502 8.68841L68.9455 9.68291ZM68.7741 9.66582L68.6706 10.6605C68.7262 10.6662 68.7897 10.6729 68.855 10.6788L68.9455 9.68291L69.0361 8.68702C68.9859 8.68246 68.9353 8.67721 68.8776 8.6712L68.7741 9.66582ZM68.2955 9.63291V10.6329C68.3976 10.6329 68.5034 10.6431 68.6706 10.6605L68.7741 9.66582L68.8776 8.6712C68.7259 8.65541 68.5181 8.63291 68.2955 8.63291V9.63291ZM61.6355 9.62291V10.6229C63.8559 10.6229 66.0737 10.6229 68.291 10.6329L68.2955 9.63291L68.3 8.63292C66.0774 8.62291 63.8552 8.62291 61.6355 8.62291V9.62291ZM61.0155 9.56291L60.8194 10.5435C61.0874 10.5971 61.3632 10.6229 61.6355 10.6229V9.62291V8.62291C61.4878 8.62291 61.3437 8.60874 61.2117 8.58233L61.0155 9.56291ZM60.3655 8.78291H59.3655C59.3655 9.16091 59.4531 9.59465 59.7642 9.95996C60.0693 10.3184 60.4727 10.4726 60.8151 10.5426L61.0155 9.56291L61.2159 8.5832C61.1184 8.56324 61.1967 8.55745 61.2869 8.66336C61.3303 8.71432 61.3527 8.76455 61.3623 8.79619C61.3705 8.82335 61.3655 8.82404 61.3655 8.78291H60.3655ZM60.5001 7.90363L59.5161 7.72562C59.4587 8.04297 59.4009 8.35885 59.3699 8.68957L60.3655 8.78291L61.3612 8.87625C61.3828 8.64585 61.4237 8.41598 61.4842 8.08164L60.5001 7.90363ZM60.5002 7.90359L59.5414 7.6195L59.5414 7.61954L60.5001 7.90363L61.4589 8.18772L61.459 8.18768L60.5002 7.90359ZM60.5255 7.76291L59.5414 7.58537L59.516 7.72605L60.5002 7.90359L61.4843 8.08113L61.5097 7.94045L60.5255 7.76291ZM60.7855 7.76291V6.76291H60.5255V7.76291V8.76291H60.7855V7.76291ZM64.4055 7.76291V6.76291H60.7855V7.76291V8.76291H64.4055V7.76291ZM68.7755 7.76291V6.76291H64.4055V7.76291V8.76291H68.7755V7.76291ZM69.6655 7.08291L68.6954 6.84037C68.6791 6.90541 68.6662 6.95212 68.6554 6.98661C68.6446 7.02145 68.639 7.03396 68.6395 7.03269C68.6404 7.0308 68.6514 7.00644 68.6769 6.97157C68.704 6.93444 68.7431 6.89152 68.7955 6.85174C68.8476 6.81213 68.8979 6.78698 68.9373 6.7719C68.9742 6.7578 68.9968 6.75432 68.9949 6.75464C68.9925 6.75505 68.9754 6.7576 68.9358 6.75969C68.8965 6.76177 68.8452 6.76291 68.7755 6.76291V7.76291V8.76291C69.032 8.76291 69.5708 8.77457 70.0056 8.44408C70.4507 8.10584 70.573 7.57601 70.6357 7.32545L69.6655 7.08291ZM69.7087 6.91468L68.7408 6.66328C68.7264 6.71877 68.7107 6.77919 68.6954 6.84039L69.6655 7.08291L70.6357 7.32543C70.6484 7.27456 70.6618 7.22291 70.6766 7.16609L69.7087 6.91468ZM69.7089 6.91372L68.7417 6.66001L68.7414 6.66097L69.7087 6.91468L70.676 7.1684L70.6762 7.16744L69.7089 6.91372ZM69.8355 6.35291L68.8481 6.19491C68.8263 6.33132 68.7908 6.47095 68.7411 6.66227L69.7089 6.91372L70.6768 7.16518C70.7227 6.98836 70.7836 6.7571 70.823 6.51091L69.8355 6.35291ZM69.8923 5.87758L68.8978 5.77265C68.8801 5.94117 68.8658 6.07537 68.8463 6.20632L69.8355 6.35291L70.8247 6.4995C70.8514 6.31991 70.8698 6.14356 70.8868 5.98252L69.8923 5.87758ZM69.8923 5.8774L68.9003 5.75143L68.9003 5.75161L69.8923 5.87758L70.8844 6.00355L70.8844 6.00337L69.8923 5.8774ZM69.8924 5.87686L68.896 5.79184L68.896 5.79238L69.8923 5.8774L70.8887 5.96243L70.8888 5.96189L69.8924 5.87686ZM69.8925 5.8762L68.8978 5.7733L68.8977 5.77397L69.8924 5.87686L70.8871 5.97976L70.8871 5.9791L69.8925 5.8762ZM69.9355 5.49291L68.9433 5.3689C68.925 5.51525 68.9107 5.65089 68.898 5.77127L69.8925 5.8762L70.8869 5.98113C70.8998 5.85885 70.9123 5.74149 70.9278 5.61692L69.9355 5.49291ZM14.8406 1.70533L15.8257 1.877C15.8633 1.66128 15.9006 1.44738 15.9397 1.23005L14.9555 1.0529L13.9714 0.875743C13.9311 1.09944 13.8929 1.31877 13.8554 1.53367L14.8406 1.70533ZM14.8405 1.70549L15.8248 1.88243L15.8248 1.88227L14.8406 1.70533L13.8564 1.52839L13.8563 1.52855L14.8405 1.70549ZM14.8405 1.70575L15.8252 1.8802L15.8252 1.87994L14.8405 1.70549L13.8559 1.53105L13.8558 1.5313L14.8405 1.70575ZM14.8405 1.70587L15.8263 1.87392L15.8263 1.8738L14.8405 1.70575L13.8547 1.5377L13.8547 1.53782L14.8405 1.70587ZM14.6955 2.5229L15.6791 2.70355C15.7303 2.4246 15.7782 2.14953 15.8256 1.87753L14.8405 1.70587L13.8553 1.5342C13.8077 1.80762 13.7613 2.07375 13.712 2.34225L14.6955 2.5229ZM14.6778 2.6029L15.6264 2.91913C15.6286 2.9125 15.6459 2.86245 15.6601 2.80544C15.6754 2.74451 15.6955 2.64526 15.6955 2.5229H14.6955H13.6955C13.6955 2.4272 13.7113 2.35462 13.7198 2.32036C13.7274 2.29001 13.7358 2.26662 13.7291 2.28666L14.6778 2.6029ZM14.6655 2.6429L15.6357 2.88542C15.6312 2.90345 15.6272 2.9164 15.6257 2.92116C15.6249 2.92373 15.6244 2.92515 15.6246 2.92466C15.6248 2.92393 15.6252 2.92282 15.6264 2.91911L14.6778 2.6029L13.7291 2.28668C13.7269 2.29331 13.7096 2.34336 13.6954 2.40037L14.6655 2.6429ZM13.3955 3.6729V4.6729C13.6376 4.6729 13.8972 4.67245 14.1202 4.64521C14.3523 4.61685 14.6772 4.54662 14.97 4.30791C15.2626 4.06935 15.3965 3.76563 15.4708 3.54565C15.5421 3.33451 15.5952 3.08183 15.6442 2.84841L14.6655 2.6429L13.6869 2.43738C13.6605 2.56297 13.6395 2.66095 13.62 2.74314C13.6003 2.82596 13.5861 2.87568 13.5759 2.90577C13.5533 2.97266 13.576 2.86394 13.7061 2.75788C13.8364 2.65167 13.9475 2.65144 13.8777 2.65996C13.8463 2.6638 13.7946 2.66767 13.7094 2.67004C13.625 2.67239 13.5242 2.6729 13.3955 2.6729V3.6729ZM6.36553 3.6629L6.36126 4.66289C8.70376 4.6729 11.0559 4.6729 13.3955 4.6729V3.6729V2.6729C11.0552 2.6729 8.70731 2.67289 6.36981 2.6629L6.36553 3.6629ZM5.40553 4.4529L6.38425 4.65811C6.39009 4.63025 6.3957 4.60585 6.40104 4.58451C6.40638 4.56316 6.41129 4.5455 6.41568 4.53102C6.42007 4.51654 6.42373 4.50592 6.42647 4.49855C6.42921 4.49119 6.4308 4.48771 6.43095 4.48739C6.43127 4.48669 6.42493 4.50061 6.40891 4.52243C6.40085 4.5334 6.39069 4.54589 6.37822 4.55916C6.3657 4.57247 6.35163 4.58573 6.3361 4.59847C6.32057 4.61121 6.30466 4.62255 6.2888 4.63245C6.27299 4.64231 6.25823 4.6501 6.24521 4.65616C6.21924 4.66823 6.20261 4.67225 6.20129 4.67256C6.20064 4.67272 6.20335 4.67205 6.21007 4.67102C6.2168 4.66998 6.22691 4.66867 6.24094 4.66741C6.25496 4.66616 6.27222 4.66501 6.29318 4.66419C6.31412 4.66337 6.3381 4.6629 6.36553 4.6629V3.6629V2.6629C6.00816 2.6629 5.49608 2.70064 5.06747 3.05232C4.64218 3.40128 4.50088 3.89446 4.42682 4.24768L5.40553 4.4529ZM6.25553 5.4829V4.4829C6.14364 4.4829 6.05678 4.48138 5.98734 4.47798C5.91654 4.47451 5.87966 4.46978 5.86465 4.4672C5.84812 4.46436 5.88055 4.46782 5.9366 4.49358C5.99932 4.5224 6.08974 4.57846 6.17181 4.67713C6.2542 4.77617 6.29375 4.87675 6.31118 4.94713C6.32674 5.00995 6.32394 5.0452 6.3243 5.0307C6.32462 5.01765 6.32692 4.98239 6.33731 4.91363C6.34749 4.84626 6.36306 4.76189 6.3853 4.65306L5.40553 4.4529L4.42577 4.25273C4.37843 4.48445 4.33074 4.7433 4.3249 4.98166C4.31912 5.21708 4.34732 5.61123 4.63426 5.95616C4.91885 6.29828 5.29825 6.39917 5.5258 6.43828C5.75845 6.47828 6.02002 6.4829 6.25553 6.4829V5.4829ZM7.96628 5.47845L7.96238 4.47846C7.39205 4.48068 6.82363 4.4829 6.25553 4.4829V5.4829V6.4829C6.82818 6.4829 7.4005 6.48066 7.97018 6.47844L7.96628 5.47845ZM7.96629 5.47845V4.47845H7.96628V5.47845V6.47845H7.96629V5.47845ZM7.9663 5.47845V4.47845H7.96629V5.47845V6.47845H7.9663V5.47845ZM7.96631 5.47845V4.47845H7.9663V5.47845V6.47845H7.96631V5.47845ZM11.3755 5.4829L11.3873 4.48297C10.2452 4.46953 9.09996 4.47402 7.96241 4.47846L7.96631 5.47845L7.97021 6.47844C9.11042 6.47399 10.24 6.46961 11.3638 6.48283L11.3755 5.4829ZM12.5455 5.6129L12.776 4.63982C12.3099 4.52942 11.8314 4.4829 11.3755 4.4829V5.4829V6.4829C11.6996 6.4829 12.0212 6.51637 12.3151 6.58598L12.5455 5.6129ZM13.9455 7.7329L14.9374 7.86029C15.0327 7.11853 14.9009 6.39395 14.5009 5.79504C14.0988 5.19295 13.4827 4.804 12.7718 4.63884L12.5455 5.6129L12.3192 6.58695C12.5983 6.6518 12.7523 6.77784 12.8377 6.90575C12.9252 7.03685 12.9984 7.25726 12.9537 7.6055L13.9455 7.7329ZM13.4355 10.0729L14.3842 10.3891C14.6602 9.56105 14.8319 8.69395 14.9376 7.85848L13.9455 7.7329L12.9535 7.60732C12.8592 8.35184 12.7108 9.08474 12.4869 9.75667L13.4355 10.0729ZM10.2455 12.2629L10.2519 13.2629C12.2037 13.2504 13.7759 12.2272 14.3849 10.3871L13.4355 10.0729L12.4862 9.75872C12.1751 10.6985 11.4274 11.2553 10.2392 11.2629L10.2455 12.2629ZM4.39405 12.2673L4.39177 13.2673C6.34102 13.2718 8.29409 13.2762 10.2524 13.2629L10.2455 12.2629L10.2387 11.2629C8.29105 11.2762 6.34708 11.2718 4.39633 11.2673L4.39405 12.2673ZM4.39391 12.2673V13.2673H4.39405V12.2673V11.2673H4.39391V12.2673ZM4.39376 12.2673V13.2673H4.39391V12.2673V11.2673H4.39376V12.2673ZM4.39362 12.2673V13.2673H4.39376V12.2673V11.2673H4.39362V12.2673ZM1.46554 12.2629V13.2629C2.4411 13.2629 3.41574 13.2651 4.39134 13.2673L4.39362 12.2673L4.3959 11.2673C3.42068 11.2651 2.44376 11.2629 1.46554 11.2629V12.2629ZM1.02554 11.7329L0.0449543 11.5368C0.00627434 11.7302 -0.105792 12.3046 0.284077 12.7811C0.673897 13.2576 1.25946 13.2629 1.46554 13.2629V12.2629V11.2629C1.4003 11.2629 1.4165 11.2565 1.47298 11.272C1.53965 11.2903 1.69679 11.3494 1.83199 11.5147C1.96729 11.68 1.99435 11.8462 1.99914 11.9161C2.00318 11.9752 1.99366 11.9913 2.00612 11.929L1.02554 11.7329ZM1.33554 10.2729L0.360803 10.0495C0.24767 10.5432 0.145304 11.045 0.0457309 11.5329L1.02554 11.7329L2.00534 11.9329C2.10577 11.4408 2.2034 10.9626 2.31027 10.4963L1.33554 10.2729ZM2.11554 9.6529L2.09667 8.65307C1.84133 8.65789 1.35571 8.6712 0.951302 8.99118C0.540263 9.31639 0.421612 9.79101 0.362118 10.0439L1.33554 10.2729L2.30895 10.5019C2.32045 10.4531 2.32955 10.42 2.33645 10.3979C2.3434 10.3756 2.34583 10.3718 2.34213 10.3799C2.33266 10.4005 2.29032 10.482 2.19227 10.5596C2.09538 10.6363 2.00931 10.6574 1.994 10.6606C1.98804 10.6619 1.99482 10.66 2.02045 10.6578C2.04588 10.6556 2.08231 10.6537 2.1344 10.6527L2.11554 9.6529ZM5.08553 9.6529V8.6529H2.11554V9.6529V10.6529H5.08553V9.6529ZM9.80553 9.6529V8.6529H5.08553V9.6529V10.6529H9.80553V9.6529ZM10.9255 8.7129L9.94266 8.52861C9.92634 8.61569 9.91177 8.68268 9.89836 8.73513C9.88486 8.78789 9.87474 8.81707 9.86945 8.83047C9.85994 8.85461 9.88195 8.78763 9.96735 8.71614C10.0075 8.68254 10.0465 8.66083 10.0761 8.64808C10.1034 8.63631 10.1163 8.6349 10.1047 8.63718C10.0924 8.63959 10.0637 8.64402 10.0112 8.6475C9.95897 8.65095 9.89231 8.6529 9.80553 8.6529V9.6529V10.6529C10.1744 10.6529 10.7779 10.6459 11.2512 10.2497C11.7209 9.85642 11.8394 9.26548 11.9084 8.89718L10.9255 8.7129ZM10.9455 8.60793L9.96772 8.39842C9.9615 8.42744 9.94631 8.49642 9.93558 8.57148L10.9255 8.7129L11.9155 8.85431C11.9148 8.85937 11.9145 8.85993 11.9158 8.85314C11.9174 8.84546 11.9193 8.83636 11.9233 8.81744L10.9455 8.60793ZM10.9455 8.6079L9.97315 8.37452L9.97314 8.37456L10.9455 8.60793L11.9179 8.8413L11.9179 8.84127L10.9455 8.6079ZM10.9655 8.5029L9.97559 8.36147C9.97631 8.35642 9.97656 8.35586 9.97522 8.36265C9.97371 8.37034 9.97179 8.37946 9.96773 8.39837L10.9455 8.6079L11.9233 8.81742C11.9296 8.78839 11.9448 8.7194 11.9555 8.64432L10.9655 8.5029ZM10.3255 7.7829V8.7829C10.4572 8.7829 10.4886 8.79096 10.4733 8.78759C10.4487 8.78218 10.2934 8.74354 10.1508 8.58391C10.0082 8.42413 9.98732 8.26516 9.9847 8.23967C9.98306 8.22372 9.98756 8.25598 9.97227 8.38702L10.9655 8.5029L11.9588 8.61878C11.9785 8.44982 11.9955 8.24207 11.9742 8.03487C11.9519 7.81813 11.8791 7.51666 11.6427 7.25188C11.4065 6.98726 11.1155 6.88112 10.9037 6.83445C10.7012 6.78983 10.4939 6.7829 10.3255 6.7829V7.7829ZM4.66554 7.7829V8.7829H10.3255V7.7829V6.7829H4.66554V7.7829ZM3.86553 7.6929L3.64068 8.66729C3.97665 8.74482 4.32217 8.7829 4.66554 8.7829V7.7829V6.7829C4.4689 6.7829 4.27442 6.76097 4.09039 6.7185L3.86553 7.6929ZM2.36554 5.5729L1.37283 5.45229C1.28112 6.20714 1.44327 6.93446 1.86774 7.5267C2.29022 8.11615 2.92043 8.49947 3.6386 8.66681L3.86553 7.6929L4.09247 6.71899C3.78064 6.64633 3.59585 6.50464 3.49333 6.3616C3.3928 6.22134 3.31995 6.00865 3.35824 5.6935L2.36554 5.5729ZM2.82554 3.3429L1.86807 3.05434C1.62982 3.84489 1.46886 4.65203 1.37266 5.45375L2.36554 5.5729L3.35841 5.69204C3.44221 4.99376 3.58125 4.3009 3.783 3.63145L2.82554 3.3429ZM5.92553 1.0329L5.9122 0.0329847C3.98274 0.0587108 2.41524 1.23044 1.86771 3.05555L2.82554 3.3429L3.78336 3.63024C4.07583 2.65535 4.86833 2.04708 5.93887 2.03281L5.92553 1.0329ZM12.119 1.0175L12.1221 0.0175063C10.0612 0.0112086 7.9873 0.00484782 5.91198 0.0329878L5.92553 1.0329L5.93909 2.0328C7.99503 2.00493 10.0524 2.01119 12.1159 2.0175L12.119 1.0175ZM14.7655 1.0229V0.0228958C13.8859 0.0228958 13.0052 0.0202051 12.1221 0.0175063L12.119 1.0175L12.1159 2.0175C12.9986 2.02019 13.8824 2.0229 14.7655 2.0229V1.0229ZM14.8865 1.04004L15.0722 0.0574315C15.0475 0.0527762 14.911 0.0228958 14.7655 0.0228958V1.0229V2.0229C14.714 2.0229 14.676 2.01759 14.6652 2.01595C14.6609 2.01529 14.6605 2.01515 14.6678 2.01648C14.6753 2.01784 14.6846 2.0196 14.7008 2.02265L14.8865 1.04004ZM14.8865 1.04004L15.0648 0.0560732L15.0648 0.0560706L14.8865 1.04004L14.7081 2.02401L14.7082 2.02401L14.8865 1.04004ZM14.8865 1.04005L15.0726 0.0575032L15.0725 0.0574951L14.8865 1.04004L14.7005 2.02259L14.7005 2.0226L14.8865 1.04005ZM14.9555 1.0529L15.1344 0.0690266C15.1114 0.0648338 15.0917 0.0611291 15.0722 0.0574431L14.8865 1.04005L14.7008 2.02266C14.7204 2.02635 14.7461 2.0312 14.7766 2.03677L14.9555 1.0529ZM52.5955 7.76292V8.76292H53.0155V7.76292V6.76292H52.5955V7.76292ZM48.7855 7.76292V8.76292H52.5955V7.76292V6.76292H48.7855V7.76292ZM48.2755 7.16292L47.2927 6.97863C47.2652 7.12488 47.2371 7.31643 47.2486 7.51661C47.2607 7.72763 47.3216 8.02414 47.5463 8.28933C47.7691 8.55234 48.0487 8.66111 48.2493 8.70916C48.4419 8.7553 48.6344 8.76292 48.7855 8.76292V7.76292V6.76292C48.6867 6.76292 48.6791 6.75554 48.7152 6.76418C48.7592 6.77472 48.9257 6.8235 49.0723 6.9965C49.2207 7.17169 49.2422 7.34821 49.2453 7.40172C49.2477 7.4444 49.2408 7.44096 49.2584 7.34721L48.2755 7.16292ZM48.5355 5.97292L47.5669 5.72454C47.4591 6.14493 47.374 6.57145 47.2949 6.96681L48.2755 7.16292L49.2561 7.35903C49.337 6.95438 49.412 6.58091 49.5042 6.2213L48.5355 5.97292ZM49.1155 5.51292V4.51292C48.7745 4.51292 48.4037 4.60408 48.0898 4.86429C47.7826 5.11894 47.633 5.45028 47.5634 5.73828L48.5355 5.97292L49.5076 6.20756C49.5075 6.20781 49.5061 6.21365 49.5023 6.22391C49.4983 6.23424 49.4917 6.24968 49.481 6.26862C49.4589 6.30804 49.4221 6.35773 49.3662 6.40405C49.2423 6.50676 49.1265 6.51292 49.1155 6.51292V5.51292ZM55.5555 5.51292V4.51292H49.1155V5.51292V6.51292H55.5555V5.51292ZM56.0455 6.12292L57.0247 6.32613C57.0525 6.1922 57.0876 6.01049 57.0924 5.83067C57.0971 5.65333 57.079 5.31396 56.8355 5.00286C56.5882 4.68682 56.2571 4.58876 56.0724 4.55246C55.8891 4.51644 55.6985 4.51292 55.5555 4.51292V5.51292V6.51292C55.6876 6.51292 55.7095 6.5194 55.6868 6.51493C55.6627 6.5102 55.4404 6.46527 55.2605 6.23547C55.0846 6.01063 55.0927 5.79063 55.0931 5.77735C55.0935 5.76159 55.0936 5.78864 55.0664 5.9197L56.0455 6.12292ZM55.1655 10.1429L56.1414 10.3614C56.4423 9.01734 56.733 7.67386 57.0229 6.33444L56.0455 6.12292L55.0682 5.9114C54.778 7.25197 54.4888 8.5885 54.1897 9.92445L55.1655 10.1429ZM54.8755 10.9329L55.7771 11.3656C55.912 11.0844 56.058 10.7364 56.1417 10.3599L55.1655 10.1429L54.1893 9.92598C54.153 10.0895 54.079 10.2814 53.974 10.5002L54.8755 10.9329ZM52.7555 12.2629V13.2629C53.3943 13.2629 54.0091 13.1167 54.5494 12.7812C55.0913 12.4446 55.4995 11.9539 55.7799 11.3597L54.8755 10.9329L53.9712 10.5061C53.8316 10.8019 53.6647 10.9763 53.4942 11.0822C53.322 11.1891 53.0867 11.2629 52.7555 11.2629V12.2629ZM45.8455 12.2629L45.8369 13.2629C48.1544 13.2829 50.4609 13.2729 52.7599 13.2629L52.7555 12.2629L52.7512 11.2629C50.4501 11.2729 48.1566 11.2829 45.8542 11.263L45.8455 12.2629ZM44.3055 12.0529L44.0722 13.0253C44.6096 13.1543 45.215 13.2629 45.8455 13.2629V12.2629V11.2629C45.4361 11.2629 45.0015 11.1915 44.5389 11.0805L44.3055 12.0529ZM42.4455 9.27292L41.4545 9.139C41.3314 10.05 41.4584 10.9234 41.9469 11.6465C42.4357 12.3699 43.1937 12.8057 44.063 13.0231L44.3055 12.0529L44.5481 11.0828C44.0173 10.9501 43.7454 10.7359 43.6041 10.5269C43.4626 10.3174 43.3596 9.97588 43.4365 9.40684L42.4455 9.27292ZM43.4455 4.39292L42.475 4.1518C42.0726 5.77161 41.6926 7.44173 41.4552 9.13403L42.4455 9.27292L43.4358 9.4118C43.6585 7.8241 44.0185 6.23422 44.416 4.63404L43.4455 4.39292ZM45.7255 1.54292L45.3228 0.627602C43.7321 1.32749 42.8541 2.64716 42.4758 4.14859L43.4455 4.39292L44.4152 4.63725C44.6769 3.59868 45.2189 2.85835 46.1283 2.45823L45.7255 1.54292ZM48.1255 1.03292V0.0329171C47.1492 0.0329171 46.2042 0.244888 45.3272 0.625656L45.7255 1.54292L46.1238 2.46018C46.7669 2.18095 47.4418 2.03292 48.1255 2.03292V1.03292ZM53.6255 1.02847L53.6279 0.0284756C51.7954 0.0240331 49.9572 0.019569 48.1183 0.0329435L48.1255 1.03292L48.1328 2.03289C49.9605 2.0196 51.789 2.02402 53.6231 2.02847L53.6255 1.02847ZM56.3755 1.03292V0.0329171C55.4603 0.0329171 54.5448 0.0306983 53.6279 0.0284756L53.6255 1.02847L53.6231 2.02847C54.5396 2.03069 55.4574 2.03292 56.3755 2.03292V1.03292ZM56.4655 1.03292V0.0329171H56.3755V1.03292V2.03292H56.4655V1.03292ZM56.9755 1.66292L57.9554 1.86252C57.9835 1.72462 58.0185 1.53809 58.0209 1.35269C58.0234 1.16373 57.9957 0.826615 57.7472 0.521488C57.5028 0.221275 57.1839 0.124295 57.0076 0.0862961C56.8303 0.0480831 56.6431 0.0386229 56.5012 0.0335543L56.4655 1.03292L56.4298 2.03228C56.5679 2.03721 56.5983 2.044 56.5863 2.04141C56.5753 2.03904 56.3696 1.99706 56.1963 1.78435C56.0191 1.56672 56.0208 1.34961 56.0211 1.32627C56.0213 1.30649 56.0226 1.33121 55.9957 1.46331L56.9755 1.66292ZM56.8155 2.42799L57.793 2.63882C57.8477 2.38536 57.9047 2.12113 57.9568 1.85533L56.9755 1.66292L55.9942 1.47051C55.9463 1.71476 55.8933 1.96057 55.838 2.21716L56.8155 2.42799ZM56.6555 3.19292L57.6368 3.38533C57.6847 3.14114 57.7377 2.89537 57.793 2.63883L56.8155 2.42799L55.838 2.21715C55.7833 2.47056 55.7263 2.73475 55.6742 3.0005L56.6555 3.19292ZM56.0755 3.74292L56.1634 4.73905C56.524 4.70723 56.8857 4.57196 57.1739 4.28378C57.4474 4.01028 57.5725 3.68073 57.6324 3.40661L56.6555 3.19292L55.6786 2.97922C55.6686 3.0251 55.6737 2.95556 55.7597 2.86956C55.8035 2.82572 55.8541 2.79247 55.9037 2.7711C55.951 2.75071 55.983 2.7472 55.9876 2.74679L56.0755 3.74292ZM55.861 3.76153L55.9632 4.75629C56.0375 4.74866 56.0855 4.74391 56.131 4.74138L56.0755 3.74292L56.0201 2.74446C55.9202 2.75001 55.826 2.75986 55.7588 2.76677L55.861 3.76153ZM55.5455 3.78292V4.78292C55.7123 4.78292 55.8663 4.76625 55.9632 4.75629L55.861 3.76153L55.7588 2.76677C55.6468 2.77827 55.5934 2.78292 55.5455 2.78292V3.78292ZM47.7355 3.78292V4.78292H55.5455V3.78292V2.78292H47.7355V3.78292ZM46.2255 4.86292L47.1971 5.09958C47.2483 4.88943 47.3094 4.85799 47.3121 4.85612C47.3364 4.83954 47.4407 4.78292 47.7355 4.78292V3.78292V2.78292C47.2204 2.78292 46.6647 2.87629 46.1839 3.20471C45.6817 3.54784 45.3927 4.05641 45.2539 4.62625L46.2255 4.86292ZM45.4355 8.61292L46.4193 8.79249C46.6475 7.54232 46.8931 6.31585 47.1957 5.10545L46.2255 4.86292L45.2554 4.62038C44.938 5.88998 44.6836 7.16351 44.4518 8.43335L45.4355 8.61292ZM46.1755 9.57292L46.337 8.58604C46.2126 8.56568 46.2668 8.54204 46.3432 8.63771C46.3819 8.68617 46.4036 8.73925 46.4121 8.78142C46.4197 8.81935 46.4127 8.82803 46.4188 8.79501L45.4355 8.61292L44.4523 8.43082C44.3627 8.91423 44.4295 9.44623 44.7803 9.88562C45.1142 10.3038 45.5885 10.4902 46.014 10.5598L46.1755 9.57292ZM46.8955 9.61292V8.61292C46.6373 8.61292 46.4765 8.61025 46.3469 8.5877L46.1755 9.57292L46.0042 10.5581C46.3345 10.6156 46.6738 10.6129 46.8955 10.6129V9.61292ZM51.8955 9.61292V8.61292H46.8955V9.61292V10.6129H51.8955V9.61292ZM52.8155 8.91292L51.8522 8.64446C51.8339 8.71045 51.8191 8.7587 51.8067 8.79489C51.7943 8.83137 51.7872 8.84667 51.7863 8.84865C51.7856 8.85009 51.7947 8.83053 51.8171 8.80083C51.8285 8.78565 51.8431 8.76817 51.8613 8.74968C51.8796 8.73108 51.9003 8.71273 51.9231 8.69535C51.946 8.67798 51.9693 8.66299 51.9921 8.65033C52.0149 8.63774 52.0357 8.6283 52.0535 8.62132C52.0883 8.60767 52.1098 8.60411 52.1085 8.60434C52.1065 8.60468 52.0902 8.6073 52.0519 8.60949C52.0139 8.61166 51.9638 8.61292 51.8955 8.61292V9.61292V10.6129C52.1693 10.6129 52.6981 10.6183 53.1329 10.288C53.5674 9.95794 53.7047 9.44726 53.7788 9.18138L52.8155 8.91292ZM52.9625 8.19039L51.9779 8.0153C51.9317 8.2753 51.8958 8.47437 51.847 8.66389L52.8155 8.91292L53.784 9.16195C53.8549 8.88643 53.9032 8.61163 53.947 8.36548L52.9625 8.19039ZM52.9625 8.19032L51.9767 8.02252L51.9766 8.02259L52.9625 8.19039L53.9483 8.35819L53.9483 8.35812L52.9625 8.19032ZM53.0355 7.79292L52.054 7.60141C52.0253 7.74845 52.0005 7.88841 51.9779 8.01523L52.9625 8.19032L53.947 8.36541C53.9699 8.23654 53.992 8.11258 54.017 7.98443L53.0355 7.79292ZM53.0155 7.76292L52.1834 8.31756L52.2034 8.34756L53.0355 7.79292L53.8676 7.23828L53.8476 7.20828L53.0155 7.76292ZM21.1555 3.7629V2.7629H19.3855V3.7629V4.7629H21.1555V3.7629ZM21.1655 3.7529L20.4584 3.04578L20.4484 3.05578L21.1555 3.7629L21.8626 4.47001L21.8726 4.46001L21.1655 3.7529ZM20.9458 4.79377L21.9238 5.00197C21.9964 4.66124 22.0705 4.31323 22.1446 3.95635L21.1655 3.7529L20.1865 3.54945C20.1134 3.90081 20.0404 4.24412 19.9677 4.58556L20.9458 4.79377ZM20.6955 5.9829L21.6751 6.18418C21.7553 5.79395 21.8384 5.40315 21.9238 5.00198L20.9458 4.79377L19.9677 4.58556C19.8825 4.98554 19.7979 5.38329 19.716 5.78162L20.6955 5.9829ZM19.4966 11.6581L20.4749 11.8651C20.8745 9.97682 21.2743 8.0879 21.6741 6.18891L20.6955 5.9829L19.717 5.77689C19.3175 7.67466 18.9179 9.56254 18.5182 11.451L19.4966 11.6581ZM19.4955 11.6629L20.4738 11.8703L20.4748 11.8654L19.4966 11.6581L18.5183 11.4507L18.5173 11.4555L19.4955 11.6629ZM19.9755 12.2629V11.2629C19.857 11.2629 19.8423 11.2561 19.8716 11.2623C19.9052 11.2694 20.111 11.3172 20.2813 11.5308C20.4502 11.7428 20.4512 11.9516 20.451 11.9816C20.4507 12.0087 20.4478 11.9907 20.4731 11.8737L19.4955 11.6629L18.518 11.4521C18.4882 11.5901 18.4529 11.7746 18.4511 11.9621C18.4492 12.1523 18.4796 12.4792 18.7173 12.7775C18.9564 13.0774 19.2703 13.1796 19.4598 13.2194C19.645 13.2584 19.8341 13.2629 19.9755 13.2629V12.2629ZM21.5655 12.2629V11.2629H19.9755V12.2629V13.2629H21.5655V12.2629ZM22.3555 11.6229L21.3772 11.4159C21.3557 11.5176 21.3432 11.5433 21.3477 11.5333C21.3567 11.5132 21.3964 11.4354 21.4893 11.3603C21.5822 11.2852 21.6663 11.2628 21.6873 11.2583C21.6976 11.2561 21.6696 11.2629 21.5655 11.2629V12.2629V13.2629C21.8449 13.2629 22.3359 13.2477 22.7468 12.9155C23.1582 12.5828 23.2756 12.1053 23.3339 11.8299L22.3555 11.6229ZM22.7277 9.87396L21.7492 9.66776C21.6259 10.2531 21.5035 10.8337 21.3783 11.4109L22.3555 11.6229L23.3328 11.8349C23.4595 11.251 23.5831 10.6645 23.7062 10.0802L22.7277 9.87396ZM23.0355 8.4229L22.0579 8.21275C21.9533 8.69905 21.8509 9.18502 21.7492 9.66776L22.7277 9.87396L23.7062 10.0802C23.8081 9.59676 23.9097 9.11474 24.0132 8.63305L23.0355 8.4229ZM23.837 4.68582L22.8588 4.47832C22.5946 5.7236 22.3302 6.97009 22.0587 8.2088L23.0355 8.4229L24.0123 8.63699C24.2855 7.39059 24.5513 6.13747 24.8152 4.89331L23.837 4.68582ZM23.9755 4.0329L22.9973 3.8252C22.9511 4.04276 22.905 4.26052 22.8588 4.47832L23.837 4.68582L24.8152 4.89331C24.8614 4.67548 24.9076 4.45792 24.9537 4.2406L23.9755 4.0329ZM23.9821 4.00619L23.0108 3.76857C23.0085 3.77773 23.0069 3.78424 23.0054 3.79038L23.9755 4.0329L24.9457 4.27542C24.9486 4.26361 24.9514 4.2523 24.9535 4.24381L23.9821 4.00619ZM24.2755 3.7329V2.7329C23.9651 2.7329 23.5693 2.82949 23.2819 3.1826C23.0713 3.44138 23.014 3.75534 23.0108 3.76848L23.9821 4.00619L24.9535 4.2439C24.9652 4.19596 24.9625 4.21087 24.9543 4.23398C24.9441 4.26303 24.911 4.34932 24.8331 4.44507C24.7466 4.55133 24.6334 4.63443 24.5084 4.68409C24.3949 4.72914 24.3067 4.7329 24.2755 4.7329V3.7329ZM28.0555 3.7629V2.7629C26.7936 2.7629 25.5455 2.76285 24.2993 2.73318L24.2755 3.7329L24.2517 4.73262C25.5256 4.76295 26.7975 4.7629 28.0555 4.7629V3.7629ZM28.4875 3.7413L28.4127 2.7441C28.2624 2.75537 28.1558 2.7629 28.0555 2.7629V3.7629V4.7629C28.2433 4.7629 28.4247 4.74882 28.5623 4.7385L28.4875 3.7413ZM28.7755 3.7229L28.7339 2.72377C28.6185 2.72857 28.506 2.73711 28.4127 2.7441L28.4875 3.7413L28.5623 4.7385C28.6611 4.73109 28.7405 4.72523 28.8172 4.72203L28.7755 3.7229ZM29.3855 3.1629L28.4061 2.96125C28.3955 3.0126 28.4 2.93458 28.496 2.84224C28.5444 2.79571 28.5985 2.7631 28.6481 2.74369C28.6947 2.72543 28.7231 2.72427 28.7201 2.72444L28.7755 3.7229L28.831 4.72136C29.1943 4.70118 29.575 4.57948 29.8826 4.28356C30.1761 4.00122 30.3056 3.6532 30.365 3.36455L29.3855 3.1629ZM29.5023 2.61561L28.5257 2.40063C28.486 2.58076 28.4439 2.77212 28.405 2.96679L29.3855 3.1629L30.3661 3.35901C30.4006 3.18639 30.4386 3.0138 30.4789 2.8306L29.5023 2.61561ZM29.6655 1.8229L28.681 1.64787C28.6378 1.89085 28.5844 2.13387 28.5257 2.40062L29.5023 2.61561L30.4789 2.8306C30.5362 2.57035 30.5986 2.28767 30.6501 1.99793L29.6655 1.8229ZM28.9955 1.0229V2.0229C29.0897 2.0229 29.1602 2.02355 29.2166 2.0255C29.2744 2.0275 29.2989 2.03035 29.3039 2.03106C29.3113 2.03211 29.2658 2.02701 29.1964 1.99795C29.119 1.96551 29.0076 1.90126 28.9081 1.78343C28.8082 1.66526 28.7627 1.54367 28.7434 1.4592C28.7342 1.41932 28.731 1.38829 28.7297 1.37005C28.729 1.36064 28.7288 1.3535 28.7288 1.34901C28.7287 1.34451 28.7288 1.34207 28.7288 1.34199C28.7288 1.34189 28.7288 1.34362 28.7285 1.34744C28.7282 1.35124 28.7277 1.35667 28.727 1.36395C28.7254 1.37882 28.723 1.39888 28.7191 1.42557C28.711 1.48049 28.6991 1.54948 28.6821 1.64174L29.6655 1.8229L30.649 2.00406C30.6818 1.82584 30.7206 1.60882 30.7276 1.41256C30.7341 1.22893 30.7258 0.835758 30.4355 0.492365C30.1473 0.151396 29.7636 0.0763173 29.5856 0.0509902C29.3935 0.0236718 29.1747 0.022899 28.9955 0.022899V1.0229ZM17.3455 1.0229V2.0229H28.9955V1.0229V0.022899H17.3455V1.0229ZM17.0655 1.0229V2.0229H17.3455V1.0229V0.022899H17.0655V1.0229ZM16.4155 1.5729L17.3871 1.80985C17.4053 1.73506 17.4126 1.72657 17.4026 1.74752C17.388 1.77834 17.3464 1.85192 17.2618 1.92329C17.1784 1.99376 17.1021 2.02061 17.077 2.02794C17.0611 2.0326 17.0766 2.02618 17.1582 2.0186L17.0655 1.0229L16.9729 0.0271978C16.7391 0.0489495 16.3227 0.0987676 15.9717 0.395011C15.6142 0.696858 15.5006 1.10406 15.444 1.33594L16.4155 1.5729ZM16.2233 2.42177L17.1995 2.63861C17.263 2.35267 17.3246 2.0753 17.389 1.80194L16.4155 1.5729L15.4421 1.34386C15.3744 1.63147 15.3101 1.92113 15.2471 2.20494L16.2233 2.42177ZM16.0655 3.1229L17.0399 3.34776C17.095 3.10907 17.1479 2.87104 17.1995 2.6386L16.2233 2.42177L15.2471 2.20494C15.1952 2.43871 15.1441 2.6687 15.0911 2.89804L16.0655 3.1229ZM16.5155 3.7529L16.6191 2.75828C16.5193 2.74788 16.5128 2.74044 16.5465 2.75179C16.5891 2.76614 16.7506 2.82925 16.8823 3.01312C17.0144 3.19757 17.0222 3.37177 17.0219 3.41866C17.0217 3.45557 17.0165 3.44797 17.0392 3.35078L16.0655 3.1229L15.0918 2.89501C15.0596 3.03283 15.0231 3.21523 15.022 3.40651C15.0207 3.60778 15.0579 3.90073 15.2563 4.17768C15.4542 4.45405 15.7188 4.58341 15.908 4.64713C16.0883 4.70786 16.2717 4.73291 16.4119 4.74752L16.5155 3.7529ZM16.8555 3.7629V2.7629C16.7361 2.7629 16.6628 2.76216 16.6061 2.75701L16.5155 3.7529L16.425 4.74879C16.5883 4.76364 16.755 4.7629 16.8555 4.7629V3.7629ZM19.3855 3.7629V2.7629H16.8555V3.7629V4.7629H19.3855V3.7629Z" fill="var(--stroke-0, white)" mask="url(#path-1-outside-1_0_31)"/>
</g>
</svg>
