<svg preserveAspectRatio="none" width="100%" height="100%" overflow="visible" style="display: block;" viewBox="0 0 19.2448 23.008" fill="none" xmlns="http://www.w3.org/2000/svg">
<path id="1" d="M15.1813 0.5C15.3604 0.5 15.537 0.502105 15.6833 0.522461C15.823 0.541935 16.0405 0.590559 16.2057 0.772461C16.3755 0.959414 16.3985 1.185 16.3991 1.33008C16.3996 1.47748 16.3758 1.64993 16.3503 1.82031V1.82129C16.061 3.72966 14.4365 14.8309 13.8864 18.5771C14.3282 18.577 15.2949 18.5717 16.2028 18.5684C17.0975 18.5651 17.9765 18.5645 18.1696 18.5801L18.6872 18.6221L18.6256 19.1377C18.5225 20.0081 18.4393 20.9306 18.277 21.791C18.223 22.0906 17.9907 22.2671 17.8141 22.3535C17.62 22.4485 17.3846 22.4943 17.1315 22.4951C15.2997 22.5218 1.42747 22.4961 1.12955 22.4961H0.565101L0.63346 21.9355C0.73472 21.1064 0.80592 20.1524 0.954749 19.3477H0.955726C0.989205 19.1654 1.09629 19.038 1.1608 18.9727C1.2356 18.8969 1.32189 18.8353 1.40201 18.7871C1.55136 18.6973 1.76166 18.6067 1.96842 18.5928L1.97916 18.5918H1.98991C3.08026 18.565 7.04392 18.5779 8.15006 18.6045C8.19096 18.6045 8.22162 18.5998 8.24479 18.5977C8.24891 18.5786 8.25728 18.5545 8.26139 18.5225L8.26237 18.5156C8.56653 16.3765 9.04231 13.1139 9.44205 10.3555C9.64199 8.9758 9.82296 7.72203 9.95377 6.79688C9.98451 6.57947 10.011 6.38025 10.0358 6.20215C9.20978 6.66929 8.38572 7.14291 7.53287 7.61816L7.10612 7.85645L6.85807 7.43457C6.30048 6.48462 5.73886 5.53638 5.1403 4.51758L4.88639 4.08594L5.31803 3.83301C6.55098 3.10932 7.71409 2.50586 8.82096 1.75781C10.2977 0.747415 11.8391 0.500027 13.529 0.5H15.1813Z" fill="var(--fill-0, #545454)" stroke="var(--stroke-0, white)"/>
</svg>
